<svg id="Capa_1" enable-background="new 0 0 512 512" height="512" viewBox="0 0 512 512" width="512" xmlns="http://www.w3.org/2000/svg" xmlns:xlink="http://www.w3.org/1999/xlink"><linearGradient id="SVGID_1_" gradientUnits="userSpaceOnUse" x1="256" x2="256" y1="512" y2="0"><stop offset="0" stop-color="#addcff"/><stop offset=".5028" stop-color="#eaf6ff"/><stop offset="1" stop-color="#eaf6ff"/></linearGradient><linearGradient id="SVGID_2_" gradientUnits="userSpaceOnUse" x1="256" x2="256" y1="390" y2="122"><stop offset="0" stop-color="#00c0ff"/><stop offset="1" stop-color="#5558ff"/></linearGradient><g><g><circle cx="256" cy="256" fill="url(#SVGID_1_)" r="256"/></g><g><g><path d="m404.391 317.047-37.778-37.795c-3.479-3.48-9.114-3.48-12.593 0-13.036 13.042-28.238 23.013-45.179 29.625-4.418 1.723-6.523 7.178-5.018 11.685.713 2.14.496 4.516-.609 6.525-1.087 1.992-2.983 3.454-5.183 4.011-26.716 6.717-57.354 6.717-84.053 0-2.218-.557-4.122-2.027-5.209-4.002-1.096-1.992-1.305-4.376-.409-7.065 1.522-4.507-.765-9.423-5.201-11.154-16.941-6.612-32.143-16.583-45.179-29.625-3.479-3.48-9.114-3.48-12.593 0l-37.778 37.795c-3.479 3.48-3.479 9.118 0 12.598 40.213 40.24 94.307 60.355 148.391 60.355s108.178-20.115 148.391-60.355c3.479-3.48 3.479-9.118 0-12.598zm-173.968-39.205 17.611 35.237c1.513 3.019 4.592 4.924 7.966 4.924s6.453-1.905 7.966-4.924l17.611-35.237c32.326-10.971 54.572-41.519 54.572-75.659-.001-44.215-35.953-80.183-80.149-80.183s-80.148 35.968-80.148 80.183c0 34.141 22.246 64.688 54.571 75.659zm-1.139-93.477c0-4.924 3.983-8.909 8.905-8.909s8.905 3.985 8.905 8.909v8.909h17.811v-8.909c0-4.924 3.983-8.909 8.905-8.909s8.905 3.985 8.905 8.909v35.637c0 4.924-3.983 8.909-8.905 8.909s-8.905-3.985-8.905-8.909v-8.909h-17.811v8.909c0 4.924-3.983 8.909-8.905 8.909s-8.905-3.985-8.905-8.909z" fill="url(#SVGID_2_)"/></g></g></g></svg>