<svg id="Capa_1" enable-background="new 0 0 512 512" height="512" viewBox="0 0 512 512" width="512" xmlns="http://www.w3.org/2000/svg" xmlns:xlink="http://www.w3.org/1999/xlink"><linearGradient id="SVGID_1_" gradientUnits="userSpaceOnUse" x1="256" x2="256" y1="512" y2="0"><stop offset="0" stop-color="#ffc2cc"/><stop offset="1" stop-color="#fff2f4"/></linearGradient><linearGradient id="SVGID_2_" gradientUnits="userSpaceOnUse" x1="256" x2="256" y1="407" y2="105"><stop offset="0" stop-color="#ffa68d"/><stop offset="1" stop-color="#fd3a84"/></linearGradient><g><g><circle cx="256" cy="256" fill="url(#SVGID_1_)" r="256"/></g><g><g><path d="m146.003 228.668c3.314 1.362 7.122.642 9.68-1.908 4.25-4.216 17.799-15.171 29.258-15.171s25.008 10.956 29.258 15.171c3.47 3.452 9.073 3.452 12.543 0 4.25-4.216 17.799-15.171 29.258-15.171s25.008 10.956 29.258 15.171c3.47 3.452 9.073 3.452 12.543 0 4.25-4.216 17.799-15.171 29.258-15.171s25.008 10.956 29.258 15.171c2.508 2.495 6.293 3.295 9.68 1.908 3.314-1.379 5.473-4.615 5.473-8.197.001-63.669-51.802-115.471-115.47-115.471s-115.471 51.802-115.471 115.471c0 3.582 2.16 6.817 5.474 8.197zm234.35 89.508h-184.378l-45.271-45.271c-5.048-5.17-11.814-8.024-19.057-8.024-14.694 0-26.647 11.953-26.647 26.647 0 7.269 2.871 14.052 7.989 19.022l43.154 43.154h-42.261c-4.91 0-8.882 3.973-8.882 8.882 0 4.91 3.973 8.882 8.882 8.882h26.647v26.647c0 4.91 3.973 8.882 8.882 8.882 4.91 0 8.882-3.973 8.882-8.882v-26.647h88.824v26.647c0 4.91 3.973 8.882 8.882 8.882s8.882-3.973 8.882-8.882v-26.647h88.823v26.647c0 4.91 3.973 8.882 8.882 8.882s8.882-3.973 8.882-8.882v-26.647h8.882c14.694 0 26.647-11.953 26.647-26.647.003-14.692-11.95-26.645-26.644-26.645zm-133.235-84.846v67.082h17.765v-67.082c-3.598-2.277-7.113-3.977-8.882-3.977s-5.284 1.699-8.883 3.977z" fill="url(#SVGID_2_)"/></g></g></g></svg>