<svg id="Capa_1" enable-background="new 0 0 512 512" height="512" viewBox="0 0 512 512" width="512" xmlns="http://www.w3.org/2000/svg" xmlns:xlink="http://www.w3.org/1999/xlink"><linearGradient id="SVGID_1_" gradientUnits="userSpaceOnUse" x1="256" x2="256" y1="512" y2="0"><stop offset="0" stop-color="#ffe59a"/><stop offset="1" stop-color="#ffffd5"/></linearGradient><linearGradient id="SVGID_2_" gradientUnits="userSpaceOnUse" x1="255.75" x2="255.75" y1="407" y2="105"><stop offset="0" stop-color="#ffde00"/><stop offset="1" stop-color="#fd5900"/></linearGradient><g><g><circle cx="256" cy="256" fill="url(#SVGID_1_)" r="256"/></g><g><g><path d="m325.661 193.641c-12.066.182-30.707 43.284-40.717 66.444-8.776 20.294-14.457 32.852-20.324 39.615v54.005c0 29.388 23.906 53.294 53.294 53.294 25.268 0 47.24-17.956 52.201-42.503l12.007-53.37c-12.6-40.124-44.61-112.198-56.461-117.485zm59.791-49.867c-18.979-23.187-46.121-38.774-67.537-38.774-24.314 0-53.294 12.326-53.294 71.059v86.222c14.562-33.354 30.853-75.645 53.294-84.484v-10.62c0-4.91 3.973-8.882 8.882-8.882 4.91 0 8.882 3.973 8.882 8.882v12.674c18.039 13.124 39.268 60.793 53.486 99.972l16.168-71.86c4.164-20.636-2.897-43.432-19.881-64.189zm-191.89-38.774c-21.417 0-48.558 15.587-67.537 38.774-16.984 20.757-24.045 43.553-19.838 64.38l15.931 70.813c26.044-62.906 41.074-91.218 53.679-99.834v-11.955c0-4.91 3.973-8.882 8.882-8.882s8.882 3.973 8.882 8.882v10.74c22.415 9.113 37.645 51.288 53.294 84.147v-86.004c.001-58.735-28.979-71.061-53.293-71.061zm-8.882 88.823c-12.476 6.252-50.054 101.341-55.75 115.421l12.388 55.062c5.004 24.738 26.976 42.694 52.244 42.694 29.388 0 53.294-23.906 53.294-53.294v-56.894c-17.882-19.796-43.404-102.989-62.176-102.989z" fill="url(#SVGID_2_)"/></g></g></g></svg>