<svg id="Capa_1" enable-background="new 0 0 512 512" height="512" viewBox="0 0 512 512" width="512" xmlns="http://www.w3.org/2000/svg" xmlns:xlink="http://www.w3.org/1999/xlink"><linearGradient id="SVGID_1_" gradientUnits="userSpaceOnUse" x1="256" x2="256" y1="512" y2="0"><stop offset="0" stop-color="#c3ffe8"/><stop offset=".9973" stop-color="#f0fff4"/></linearGradient><linearGradient id="SVGID_2_" gradientUnits="userSpaceOnUse" x1="256" x2="256" y1="407" y2="105"><stop offset="0" stop-color="#9cffac"/><stop offset="1" stop-color="#00b59c"/></linearGradient><g><g><circle cx="256" cy="256" fill="url(#SVGID_1_)" r="256"/></g><g><g><path d="m327.077 389.235h-44.423v-36.294c-2.962.261-5.876.764-8.885.764s-5.923-.503-8.885-.764v36.294h-44.423c-4.911 0-8.885 3.973-8.885 8.882 0 4.91 3.974 8.882 8.885 8.882h106.615c4.911 0 8.885-3.973 8.885-8.882s-3.973-8.882-8.884-8.882zm35.538-177.647h-177.692c-4.911 0-8.885 3.973-8.885 8.882 0 9.184 1.009 18.077 2.732 26.647h189.998c1.723-8.57 2.732-17.463 2.732-26.647 0-4.909-3.974-8.882-8.885-8.882zm-88.846 124.353c40.573 0 75.43-29.374 90.19-71.059h-180.38c14.76 41.685 49.617 71.059 90.19 71.059zm-17.769-159.882h44.423v17.765h17.769v-17.765h44.423c4.911 0 8.885-3.973 8.885-8.882 0-34.28-27.903-62.176-62.192-62.176s-62.192 27.896-62.192 62.176c-.001 4.909 3.973 8.882 8.884 8.882zm-44.778 17.764h18.484l-18.468-64.614c-1.093-3.817-4.581-6.445-8.546-6.445h-53.308c-4.911 0-8.885 3.973-8.885 8.882 0 4.91 3.974 8.882 8.885 8.882h46.609z" fill="url(#SVGID_2_)"/></g></g></g></svg>