<svg id="Capa_1" enable-background="new 0 0 512 512" height="512" viewBox="0 0 512 512" width="512" xmlns="http://www.w3.org/2000/svg" xmlns:xlink="http://www.w3.org/1999/xlink"><linearGradient id="SVGID_1_" gradientUnits="userSpaceOnUse" x1="256" x2="256" y1="512" y2="0"><stop offset="0" stop-color="#ffc2cc"/><stop offset="1" stop-color="#fff2f4"/></linearGradient><linearGradient id="SVGID_2_" gradientUnits="userSpaceOnUse" x1="256" x2="256" y1="407" y2="105"><stop offset="0" stop-color="#ffa68d"/><stop offset="1" stop-color="#fd3a84"/></linearGradient><g><g><circle cx="256" cy="256" fill="url(#SVGID_1_)" r="256"/></g><g><g><path d="m362.615 264.882c-12.18 0-201.092 0-213.23 0-4.911 0-8.885 3.973-8.885 8.882 0 4.91 3.974 8.882 8.885 8.882h8.885v115.471c0 4.91 3.974 8.882 8.885 8.882h177.692c4.911 0 8.885-3.973 8.885-8.882v-115.47h8.885c4.911 0 8.885-3.973 8.885-8.882-.002-4.91-3.976-8.883-8.887-8.883zm-44.423 97.706c0 4.91-3.974 8.882-8.885 8.882h-106.615c-4.911 0-8.885-3.973-8.885-8.882v-53.294c0-4.91 3.974-8.882 8.885-8.882h106.615c4.911 0 8.885 3.973 8.885 8.882zm-106.615-8.882h88.846v-35.529h-88.846zm-8.885-159.883h33.852c-2.58 11.222-7.786 18.459-12.977 25.32-5.891 7.789-11.991 15.848-11.991 27.974h88.846c0-11.944-6.091-20.133-11.982-28.044-5.172-6.951-10.363-14.257-12.961-25.251h33.828c2.915 0 5.64-1.431 7.306-3.825 1.657-2.394 2.039-5.447 1.015-8.18l-26.654-71.059c-1.302-3.461-4.616-5.76-8.321-5.76h-53.308c-3.705 0-7.019 2.299-8.321 5.76l-26.654 71.059c-1.024 2.732-.642 5.786 1.015 8.18 1.668 2.395 4.392 3.826 7.307 3.826z" fill="url(#SVGID_2_)"/></g></g></g></svg>