<svg id="Capa_1" enable-background="new 0 0 512 512" height="512" viewBox="0 0 512 512" width="512" xmlns="http://www.w3.org/2000/svg" xmlns:xlink="http://www.w3.org/1999/xlink"><linearGradient id="SVGID_1_" gradientUnits="userSpaceOnUse" x1="256" x2="256" y1="512" y2="0"><stop offset="0" stop-color="#ffbef9"/><stop offset="1" stop-color="#fff1ff"/></linearGradient><linearGradient id="SVGID_2_" gradientUnits="userSpaceOnUse" x1="256" x2="256" y1="407" y2="105"><stop offset="0" stop-color="#ff81ff"/><stop offset="1" stop-color="#a93aff"/></linearGradient><g><g><circle cx="256" cy="256" fill="url(#SVGID_1_)" r="256"/></g><g><g><path d="m344.824 158.294h-177.648c-4.91 0-8.882 3.973-8.882 8.882v79.941h26.647c4.91 0 8.882 3.973 8.882 8.882 0 4.91-3.973 8.882-8.882 8.882h-26.647v115.471c0 2.698 1.223 5.248 3.331 6.939l22.206 17.765c3.244 2.585 7.859 2.585 11.103 0l16.655-13.332 16.654 13.332c3.245 2.585 7.859 2.585 11.103 0l16.654-13.331 16.654 13.332c3.245 2.585 7.859 2.585 11.103 0l16.655-13.332 16.654 13.332c3.25 2.589 7.852 2.591 11.103 0l22.206-17.765c2.108-1.691 3.331-4.242 3.331-6.939v-115.471h-26.647c-4.91 0-8.882-3.973-8.882-8.882 0-4.91 3.973-8.882 8.882-8.882h26.647v-79.941c0-4.91-3.973-8.883-8.882-8.883zm-106.589 106.588h-17.765c-4.91 0-8.882-3.973-8.882-8.882 0-4.91 3.973-8.882 8.882-8.882h17.765c4.91 0 8.882 3.973 8.882 8.882.001 4.91-3.972 8.882-8.882 8.882zm53.294 0h-17.765c-4.91 0-8.882-3.973-8.882-8.882 0-4.91 3.973-8.882 8.882-8.882h17.765c4.91 0 8.882 3.973 8.882 8.882.001 4.91-3.972 8.882-8.882 8.882zm106.589-159.882h-284.236c-4.91 0-8.882 3.973-8.882 8.882v88.824c0 4.91 3.973 8.882 8.882 8.882h26.647v-44.412c0-14.694 11.953-26.647 26.647-26.647h177.647c14.694 0 26.647 11.953 26.647 26.647v44.412h26.647c4.91 0 8.882-3.973 8.882-8.882v-88.824c.001-4.909-3.972-8.882-8.881-8.882z" fill="url(#SVGID_2_)"/></g></g></g></svg>