<svg id="Capa_1" enable-background="new 0 0 512 512" height="512" viewBox="0 0 512 512" width="512" xmlns="http://www.w3.org/2000/svg" xmlns:xlink="http://www.w3.org/1999/xlink"><linearGradient id="SVGID_1_" gradientUnits="userSpaceOnUse" x1="256" x2="256" y1="512" y2="0"><stop offset="0" stop-color="#addcff"/><stop offset=".5028" stop-color="#eaf6ff"/><stop offset="1" stop-color="#eaf6ff"/></linearGradient><linearGradient id="SVGID_2_" gradientUnits="userSpaceOnUse" x1="256" x2="256" y1="407" y2="105"><stop offset="0" stop-color="#00c0ff"/><stop offset="1" stop-color="#5558ff"/></linearGradient><g><g><circle cx="256" cy="256" fill="url(#SVGID_1_)" r="256"/></g><path d="m327.273 158.294c-4.924 0-8.909-3.973-8.909-8.882 0-4.91 3.985-8.882 8.909-8.882h26.727v-26.647c0-4.91-3.985-8.882-8.909-8.882h-178.182c-4.924 0-8.909 3.973-8.909 8.882v26.647h26.727c4.924 0 8.909 3.973 8.909 8.882 0 4.91-3.985 8.882-8.909 8.882h-26.727v239.824c0 4.91 3.985 8.882 8.909 8.882h178.182c4.924 0 8.909-3.973 8.909-8.882v-239.824zm-53.455-17.765h17.818c4.924 0 8.909 3.973 8.909 8.882 0 4.91-3.985 8.882-8.909 8.882h-17.818c-4.924 0-8.909-3.973-8.909-8.882s3.985-8.882 8.909-8.882zm0 53.295c4.924 0 8.909 3.973 8.909 8.882v35.529c0 4.91-3.985 8.882-8.909 8.882s-8.909-3.973-8.909-8.882v-8.882h-17.818v8.882c0 4.91-3.985 8.882-8.909 8.882s-8.909-3.973-8.909-8.882v-35.529c0-4.91 3.985-8.882 8.909-8.882s8.909 3.973 8.909 8.882v8.882h17.818v-8.882c0-4.91 3.985-8.882 8.909-8.882zm-71.273 159.882c-4.92 0-8.909-3.977-8.909-8.882s3.989-8.882 8.909-8.882 8.909 3.977 8.909 8.882-3.989 8.882-8.909 8.882zm0-35.53c-4.92 0-8.909-3.977-8.909-8.882s3.989-8.882 8.909-8.882 8.909 3.977 8.909 8.882-3.989 8.882-8.909 8.882zm0-35.529c-4.92 0-8.909-3.977-8.909-8.882s3.989-8.882 8.909-8.882 8.909 3.977 8.909 8.882-3.989 8.882-8.909 8.882zm8.91-133.235c0-4.91 3.985-8.882 8.909-8.882h17.818c4.924 0 8.909 3.973 8.909 8.882 0 4.91-3.985 8.882-8.909 8.882h-17.818c-4.925 0-8.909-3.973-8.909-8.882zm98 204.294h-71.273c-4.924 0-8.909-3.973-8.909-8.882 0-4.91 3.985-8.882 8.909-8.882h71.273c4.924 0 8.909 3.973 8.909 8.882s-3.985 8.882-8.909 8.882zm0-35.53h-71.273c-4.924 0-8.909-3.973-8.909-8.882 0-4.91 3.985-8.882 8.909-8.882h71.273c4.924 0 8.909 3.973 8.909 8.882 0 4.91-3.985 8.882-8.909 8.882zm0-35.529h-71.273c-4.924 0-8.909-3.973-8.909-8.882s3.985-8.882 8.909-8.882h71.273c4.924 0 8.909 3.973 8.909 8.882s-3.985 8.882-8.909 8.882z" fill="url(#SVGID_2_)"/></g></svg>