<svg id="Capa_1" enable-background="new 0 0 512 512" height="512" viewBox="0 0 512 512" width="512" xmlns="http://www.w3.org/2000/svg" xmlns:xlink="http://www.w3.org/1999/xlink"><linearGradient id="SVGID_1_" gradientUnits="userSpaceOnUse" x1="256" x2="256" y1="512" y2="0"><stop offset="0" stop-color="#c3ffe8"/><stop offset=".9973" stop-color="#f0fff4"/></linearGradient><linearGradient id="SVGID_2_" gradientUnits="userSpaceOnUse" x1="256" x2="256" y1="407" y2="105"><stop offset="0" stop-color="#9cffac"/><stop offset="1" stop-color="#00b59c"/></linearGradient><g><g><circle cx="256" cy="256" fill="url(#SVGID_1_)" r="256"/></g><g><g><path d="m362.615 389.235h-14.09l-13.62-13.616c22.463-21.08 36.595-50.933 36.595-84.09 0-32.255-13.333-61.429-34.737-82.4l11.708-13.955 6.804 5.71c3.813 3.196 9.412 2.619 12.511-1.093 3.158-3.756 2.664-9.359-1.093-12.508-.008-.006-.013-.011-.02-.017 0 0 0 0-.001-.001-.002-.002-.004-.003-.005-.005-.001-.001-.001-.001-.003-.002-.009-.007-.019-.016-.027-.022 0 0 .001.001.001.001-.001-.001-.002-.001-.002-.002 0 0 .001 0 .001.001-.017-.014-.036-.031-.055-.046.003.002.005.004.008.006-.013-.011-.028-.024-.045-.038.009.008.023.019.037.031-.024-.02-.038-.032-.045-.038-.751-.63-5.214-4.375-27.063-22.71-3.757-3.157-9.362-2.654-12.511 1.093-3.158 3.756-2.664 9.359 1.093 12.508l6.799 5.705-11.738 13.991c-16.673-11.962-36.611-19.575-58.234-21.233v-18.715c20.771-2.337 35.538-12.792 35.538-26.143.002-15.188-19.095-26.647-44.421-26.647s-44.423 11.459-44.423 26.647c0 13.351 14.767 23.806 35.538 26.143v18.719c-21.623 1.658-41.561 9.272-58.234 21.233l-11.738-13.991 6.799-5.705c3.757-3.149 4.251-8.752 1.093-12.508-3.124-3.747-8.729-4.25-12.511-1.093-5.129 4.304-18.167 15.245-27.218 22.839-3.757 3.149-4.251 8.752-1.093 12.508 3.101 3.715 8.701 4.287 12.511 1.093l6.804-5.71 11.708 13.955c-21.404 20.971-34.737 50.145-34.737 82.4 0 33.157 14.132 63.009 36.595 84.09l-13.62 13.616h-14.09c-4.911 0-8.885 3.973-8.885 8.882 0 4.91 3.974 8.882 8.885 8.882h17.769c2.36 0 4.616-.937 6.282-2.602l17.527-17.523c18.54 12.679 40.931 20.125 65.038 20.125s46.498-7.446 65.037-20.125l17.527 17.523c1.666 1.666 3.922 2.602 6.282 2.602h17.769c4.911 0 8.885-3.973 8.885-8.882 0-4.91-3.974-8.883-8.885-8.883zm-106.615-17.764c-44.093 0-79.962-35.859-79.962-79.941s35.868-79.941 79.962-79.941 79.962 35.859 79.962 79.941-35.869 79.941-79.962 79.941zm0-142.118c-34.289 0-62.192 27.896-62.192 62.177s27.903 62.176 62.192 62.176 62.192-27.896 62.192-62.176-27.903-62.177-62.192-62.177zm24.051 86.221c-3.47 3.47-9.093 3.47-12.563 0l-17.769-17.765c-1.666-1.665-2.603-3.921-2.603-6.28v-35.529c0-4.91 3.974-8.882 8.885-8.882s8.885 3.973 8.885 8.882v31.852l15.166 15.162c3.469 3.47 3.469 9.091-.001 12.56z" fill="url(#SVGID_2_)"/></g></g></g></svg>