<svg id="Capa_1" enable-background="new 0 0 512 512" height="512" viewBox="0 0 512 512" width="512" xmlns="http://www.w3.org/2000/svg" xmlns:xlink="http://www.w3.org/1999/xlink"><linearGradient id="SVGID_1_" gradientUnits="userSpaceOnUse" x1="256" x2="256" y1="512" y2="0"><stop offset="0" stop-color="#addcff"/><stop offset=".5028" stop-color="#eaf6ff"/><stop offset="1" stop-color="#eaf6ff"/></linearGradient><linearGradient id="SVGID_2_" gradientUnits="userSpaceOnUse" x1="256" x2="256" y1="389" y2="123"><stop offset="0" stop-color="#00c0ff"/><stop offset="1" stop-color="#5558ff"/></linearGradient><g><g><circle cx="256" cy="256" fill="url(#SVGID_1_)" r="256"/></g><g><g><path d="m401.527 283.284c-3.279-1.333-7.13-.623-9.68 1.905-4.25 4.208-17.799 15.144-29.258 15.144s-25.008-10.936-29.258-15.144c-3.47-3.446-9.073-3.446-12.543 0-4.25 4.208-17.799 15.144-29.258 15.144-11.458 0-25.008-10.936-29.258-15.144-3.47-3.446-9.073-3.446-12.543 0-4.25 4.208-17.799 15.144-29.258 15.144s-25.008-10.936-29.258-15.144c-3.47-3.446-9.073-3.446-12.543 0-4.25 4.208-17.799 15.144-29.258 15.144-11.458 0-25.008-10.936-29.258-15.144-2.559-2.528-6.393-3.256-9.68-1.905-3.313 1.377-5.473 4.607-5.473 8.183v88.667c0 4.901 3.973 8.867 8.882 8.867h284.235c4.91 0 8.882-3.966 8.882-8.867v-88.667c0-3.576-2.16-6.806-5.473-8.183zm-189.939-4.654v-13.763h88.823v13.763c2.843-1.796 5.744-3.929 7.868-6.031 2.829-2.814 6.226-4.823 9.897-6.117v-108.015c0-9.776 7.971-17.733 17.765-17.733s17.765 7.957 17.765 17.733v8.867c0 4.901 3.973 8.867 8.883 8.867 4.909 0 8.882-3.966 8.882-8.867v-8.867c0-19.56-15.935-35.467-35.53-35.467s-35.53 15.906-35.53 35.467v35.467h-88.823v-35.467c0-9.776 7.971-17.733 17.765-17.733 9.793 0 17.765 7.957 17.765 17.733v8.867c0 4.901 3.973 8.867 8.882 8.867s8.882-3.966 8.882-8.867v-8.867c0-19.56-15.935-35.467-35.529-35.467-19.595 0-35.53 15.906-35.53 35.467v108.013c3.676 1.297 7.079 3.312 9.923 6.137 2.112 2.091 5.004 4.221 7.842 6.013zm0-66.963h88.823v35.467h-88.823z" fill="url(#SVGID_2_)"/></g></g></g></svg>