<svg id="Capa_1" enable-background="new 0 0 512 512" height="512" viewBox="0 0 512 512" width="512" xmlns="http://www.w3.org/2000/svg" xmlns:xlink="http://www.w3.org/1999/xlink"><linearGradient id="SVGID_1_" gradientUnits="userSpaceOnUse" x1="256" x2="256" y1="512" y2="0"><stop offset="0" stop-color="#ffe59a"/><stop offset="1" stop-color="#ffffd5"/></linearGradient><linearGradient id="SVGID_2_" gradientUnits="userSpaceOnUse" x1="256" x2="256" y1="407" y2="105"><stop offset="0" stop-color="#ffde00"/><stop offset="1" stop-color="#fd5900"/></linearGradient><g><g><circle cx="256" cy="256" fill="url(#SVGID_1_)" r="256"/></g><g><g><path d="m344.636 105c-4.899 0-8.864 3.973-8.864 8.882v62.177h-17.727v-62.177c0-4.91-3.964-8.882-8.864-8.882s-8.864 3.973-8.864 8.882v62.177h-17.727v-62.177c0-4.91-3.964-8.882-8.864-8.882s-8.864 3.973-8.864 8.882v106.588c0 14.694 11.928 26.647 26.591 26.647h8.864v37.166c-10.295 3.679-17.727 13.446-17.727 25.011v71.059c0 14.694 11.928 26.647 26.591 26.647s26.591-11.953 26.591-26.647v-71.059c0-11.565-7.432-21.332-17.727-25.011v-37.166h8.864c14.663 0 26.591-11.953 26.591-26.647v-106.588c0-4.909-3.964-8.882-8.864-8.882zm-97.5 71.059c0-39.849-19.467-71.059-44.318-71.059s-44.318 31.21-44.318 71.059c0 34.964 14.994 63.251 35.455 69.667v38.558c-10.295 3.679-17.727 13.446-17.727 25.011v71.059c0 14.694 11.928 26.647 26.591 26.647s26.591-11.953 26.591-26.647v-71.059c0-11.565-7.432-21.332-17.727-25.011v-38.558c20.459-6.416 35.453-34.703 35.453-69.667z" fill="url(#SVGID_2_)"/></g></g></g></svg>