<svg id="Capa_1" enable-background="new 0 0 512 512" height="512" viewBox="0 0 512 512" width="512" xmlns="http://www.w3.org/2000/svg" xmlns:xlink="http://www.w3.org/1999/xlink"><linearGradient id="SVGID_1_" gradientUnits="userSpaceOnUse" x1="256" x2="256" y1="512" y2="0"><stop offset="0" stop-color="#addcff"/><stop offset=".5028" stop-color="#eaf6ff"/><stop offset="1" stop-color="#eaf6ff"/></linearGradient><linearGradient id="SVGID_2_" gradientUnits="userSpaceOnUse" x1="256" x2="256" y1="398" y2="114"><stop offset="0" stop-color="#00c0ff"/><stop offset="1" stop-color="#5558ff"/></linearGradient><g><g><circle cx="256" cy="256" fill="url(#SVGID_1_)" r="256"/></g><g><g><path d="m327.059 380.25h-44.412v-17.75h-71.059v17.75h-44.412c-4.91 0-8.882 3.969-8.882 8.875s3.973 8.875 8.882 8.875h159.882c4.91 0 8.882-3.969 8.882-8.875s-3.972-8.875-8.881-8.875zm-168.765-106.5h88.824v-88.75h-88.824zm17.765-62.125c0-4.906 3.973-8.875 8.882-8.875 4.91 0 8.882 3.969 8.882 8.875v8.875h17.765v-8.875c0-4.906 3.973-8.875 8.882-8.875 4.91 0 8.882 3.969 8.882 8.875v35.5c0 4.906-3.973 8.875-8.882 8.875-4.91 0-8.882-3.969-8.882-8.875v-8.875h-17.765v8.875c0 4.906-3.973 8.875-8.882 8.875-4.91 0-8.882-3.969-8.882-8.875zm222.059-97.625h-284.236c-4.91 0-8.882 3.969-8.882 8.875v213c0 4.906 3.973 8.875 8.882 8.875h284.235c4.91 0 8.882-3.969 8.882-8.875v-213c.001-4.906-3.972-8.875-8.881-8.875zm-133.236 168.625c0 4.906-3.973 8.875-8.882 8.875h-106.588c-4.91 0-8.882-3.969-8.882-8.875v-106.5c0-4.906 3.973-8.875 8.882-8.875h106.588c4.91 0 8.882 3.969 8.882 8.875zm97.706 8.875h-71.059c-4.91 0-8.882-3.969-8.882-8.875s3.973-8.875 8.882-8.875h71.059c4.91 0 8.882 3.969 8.882 8.875s-3.972 8.875-8.882 8.875zm0-35.5h-71.059c-4.91 0-8.882-3.969-8.882-8.875s3.973-8.875 8.882-8.875h71.059c4.91 0 8.882 3.969 8.882 8.875s-3.972 8.875-8.882 8.875zm0-35.5h-71.059c-4.91 0-8.882-3.969-8.882-8.875s3.973-8.875 8.882-8.875h71.059c4.91 0 8.882 3.969 8.882 8.875s-3.972 8.875-8.882 8.875zm0-35.5h-71.059c-4.91 0-8.882-3.969-8.882-8.875s3.973-8.875 8.882-8.875h71.059c4.91 0 8.882 3.969 8.882 8.875s-3.972 8.875-8.882 8.875z" fill="url(#SVGID_2_)"/></g></g></g></svg>