<svg id="Capa_1" enable-background="new 0 0 512 512" height="512" viewBox="0 0 512 512" width="512" xmlns="http://www.w3.org/2000/svg" xmlns:xlink="http://www.w3.org/1999/xlink"><linearGradient id="SVGID_1_" gradientUnits="userSpaceOnUse" x1="256" x2="256" y1="512" y2="0"><stop offset="0" stop-color="#ffe59a"/><stop offset="1" stop-color="#ffffd5"/></linearGradient><linearGradient id="SVGID_2_" gradientUnits="userSpaceOnUse" x1="256" x2="256" y1="407" y2="105"><stop offset="0" stop-color="#ffde00"/><stop offset="1" stop-color="#fd5900"/></linearGradient><g><g><circle cx="256" cy="256" fill="url(#SVGID_1_)" r="256"/></g><g><g><path d="m229.353 291.529c0-4.91 3.973-8.882 8.882-8.882h17.765c12.309 0 23.75-4.918 32.225-13.844 8.466-8.926 12.768-20.627 12.118-32.962-1.206-23.169-22.457-42.018-47.361-42.018h-41.393v124.353h17.765v-26.647zm0-71.058c0-4.91 3.973-8.882 8.882-8.882h17.765c14.694 0 26.647 11.953 26.647 26.647s-11.953 26.647-26.647 26.647h-17.765c-4.91 0-8.882-3.973-8.882-8.882zm35.529 17.764c0-4.901-3.981-8.882-8.882-8.882h-8.882v17.765h8.882c4.901 0 8.882-3.982 8.882-8.883zm-106.588 115.471h195.412v-195.412h-195.412zm35.529-168.765c0-4.91 3.973-8.882 8.882-8.882h50.276c34.202 0 63.408 26.396 65.108 58.846.902 17.253-5.126 33.63-16.975 46.12-11.866 12.5-27.887 19.387-45.114 19.387h-8.882v26.647c0 4.91-3.973 8.882-8.882 8.882h-35.53c-4.909 0-8.882-3.973-8.882-8.882v-142.118zm168.765-79.941h-213.176c-24.487 0-44.412 19.925-44.412 44.412v213.176c0 24.487 19.925 44.412 44.412 44.412h213.177c24.486 0 44.411-19.925 44.411-44.412v-213.176c0-24.487-19.925-44.412-44.412-44.412zm8.883 257.588c0 4.91-3.973 8.882-8.882 8.882h-213.177c-4.91 0-8.882-3.973-8.882-8.882v-213.176c0-4.91 3.973-8.882 8.882-8.882h213.177c4.91 0 8.882 3.973 8.882 8.882z" fill="url(#SVGID_2_)"/></g></g></g></svg>