<svg id="Capa_1" enable-background="new 0 0 512 512" height="512" viewBox="0 0 512 512" width="512" xmlns="http://www.w3.org/2000/svg" xmlns:xlink="http://www.w3.org/1999/xlink"><linearGradient id="SVGID_1_" gradientUnits="userSpaceOnUse" x1="256" x2="256" y1="512" y2="0"><stop offset="0" stop-color="#ffbef9"/><stop offset="1" stop-color="#fff1ff"/></linearGradient><linearGradient id="SVGID_2_" gradientUnits="userSpaceOnUse" x1="256" x2="256" y1="407" y2="105"><stop offset="0" stop-color="#ff81ff"/><stop offset="1" stop-color="#a93aff"/></linearGradient><g><g><circle cx="256" cy="256" fill="url(#SVGID_1_)" r="256"/></g><g><g><path d="m300.375 105h-88.75c-4.906 0-8.875 3.973-8.875 8.882 0 4.91 3.969 8.882 8.875 8.882h26.625v35.53h-8.875c-4.906 0-8.875 3.973-8.875 8.882v8.882h53.25v-8.882c0-4.91-3.969-8.882-8.875-8.882h-8.875v-35.53h44.375c4.897 0 8.875 3.981 8.875 8.882 0 4.91 3.969 8.882 8.875 8.882s8.875-3.973 8.875-8.882c0-14.693-11.943-26.646-26.625-26.646zm-62.125 230.941h71v-71.059h-71zm62.125-142.118h-106.5c-4.906 0-8.875 3.973-8.875 8.882v195.412c0 4.91 3.969 8.882 8.875 8.882h106.5c4.906 0 8.875-3.973 8.875-8.882v-44.412h-79.875c-4.906 0-8.875-3.973-8.875-8.882v-88.823c0-4.91 3.969-8.882 8.875-8.882h79.875v-44.412c0-4.91-3.969-8.883-8.875-8.883z" fill="url(#SVGID_2_)"/></g></g></g></svg>