<svg id="Capa_1" enable-background="new 0 0 512 512" height="512" viewBox="0 0 512 512" width="512" xmlns="http://www.w3.org/2000/svg" xmlns:xlink="http://www.w3.org/1999/xlink"><linearGradient id="SVGID_1_" gradientUnits="userSpaceOnUse" x1="256" x2="256" y1="512" y2="0"><stop offset="0" stop-color="#ffc2cc"/><stop offset="1" stop-color="#fff2f4"/></linearGradient><linearGradient id="SVGID_2_" gradientUnits="userSpaceOnUse" x1="256" x2="256" y1="407" y2="105"><stop offset="0" stop-color="#ffa68d"/><stop offset="1" stop-color="#fd3a84"/></linearGradient><g><g><circle cx="256" cy="256" fill="url(#SVGID_1_)" r="256"/></g><g><g><path d="m291.5 176.957v-20.299c10.308-3.679 17.75-13.446 17.75-25.011 0-14.694-11.943-26.647-26.625-26.647s-26.625 11.953-26.625 26.647c0 11.565 7.442 21.332 17.75 25.011v20.299c-30.027 4.357-53.25 30.04-53.25 61.279v8.882h79.875c4.906 0 8.875 3.973 8.875 8.882v106.588c0 4.91-3.969 8.882-8.875 8.882h-79.875v26.647c0 4.91 3.969 8.882 8.875 8.882h106.5c4.906 0 8.875-3.973 8.875-8.882v-159.882c0-31.239-23.223-56.922-53.25-61.278zm0 87.925h-71v88.823h71zm97.625-159.882h-71.226c3.925 5.189 6.859 11.16 8.203 17.765h63.023c4.906 0 8.875-3.973 8.875-8.882 0-4.91-3.969-8.883-8.875-8.883zm-14.751 53.815-48.53-17.416c-1.345 5.962-3.912 11.432-7.392 16.224l49.924 17.915c4.639 1.655 9.706-.764 11.354-5.361 1.655-4.623-.745-9.706-5.356-11.362zm-189.443 78.319c-.555-4.441-4.333-7.781-8.806-7.781h-5.53c8.864-37.157 35.812-67.383 70.999-80.913-2.128-5.188-3.344-10.847-3.344-16.793 0-.345.094-.664.102-1.006-43.404 15.455-76.464 52.858-85.86 98.712h-11.866c-4.472 0-8.251 3.34-8.806 7.781l-17.75 142.118c-.321 2.524.468 5.074 2.149 6.983 1.69 1.908 4.108 3.001 6.656 3.001h71c2.548 0 4.966-1.093 6.656-3.001 1.682-1.908 2.47-4.458 2.149-6.983z" fill="url(#SVGID_2_)"/></g></g></g></svg>