<svg id="Capa_1" enable-background="new 0 0 512 512" height="512" viewBox="0 0 512 512" width="512" xmlns="http://www.w3.org/2000/svg" xmlns:xlink="http://www.w3.org/1999/xlink"><linearGradient id="SVGID_1_" gradientUnits="userSpaceOnUse" x1="256" x2="256" y1="512" y2="0"><stop offset="0" stop-color="#c3ffe8"/><stop offset=".9973" stop-color="#f0fff4"/></linearGradient><linearGradient id="SVGID_2_" gradientUnits="userSpaceOnUse" x1="256" x2="256" y1="336" y2="176"><stop offset="0" stop-color="#9cffac"/><stop offset="1" stop-color="#00b59c"/></linearGradient><g><g><circle cx="256" cy="256" fill="url(#SVGID_1_)" r="256"/></g><g><g><path d="m184.941 176h-26.647v44.444c0 4.913-3.973 8.889-8.882 8.889-4.91 0-8.882-3.976-8.882-8.889v-44.444h-26.647c-4.91 0-8.882 3.976-8.882 8.889v142.222c0 4.913 3.973 8.889 8.882 8.889h26.647v-44.444c0-4.913 3.973-8.889 8.882-8.889 4.91 0 8.882 3.976 8.882 8.889v44.444h26.647c4.91 0 8.882-3.976 8.882-8.889v-142.222c.001-4.913-3.972-8.889-8.882-8.889zm213.177 0h-26.647v44.444c0 4.913-3.973 8.889-8.882 8.889-4.91 0-8.882-3.976-8.882-8.889v-44.444h-26.647c-4.91 0-8.882 3.976-8.882 8.889v142.222c0 4.913 3.973 8.889 8.882 8.889h26.647v-44.444c0-4.913 3.973-8.889 8.882-8.889 4.91 0 8.882 3.976 8.882 8.889v44.444h26.647c4.91 0 8.882-3.976 8.882-8.889v-142.222c0-4.913-3.973-8.889-8.882-8.889zm-186.53 106.667h88.823v-53.333h-88.823z" fill="url(#SVGID_2_)"/></g></g></g></svg>