<svg id="Capa_1" enable-background="new 0 0 512 512" height="512" viewBox="0 0 512 512" width="512" xmlns="http://www.w3.org/2000/svg" xmlns:xlink="http://www.w3.org/1999/xlink"><linearGradient id="SVGID_1_" gradientUnits="userSpaceOnUse" x1="256" x2="256" y1="512" y2="0"><stop offset="0" stop-color="#c3ffe8"/><stop offset=".9973" stop-color="#f0fff4"/></linearGradient><linearGradient id="SVGID_2_" gradientUnits="userSpaceOnUse" x1="256" x2="256" y1="353.5" y2="158.5"><stop offset="0" stop-color="#9cffac"/><stop offset="1" stop-color="#00b59c"/></linearGradient><g><g><circle cx="256" cy="256" fill="url(#SVGID_1_)" r="256"/></g><g><g><path d="m256 229.409c-4.901 0-8.882 3.973-8.882 8.864s3.981 8.864 8.882 8.864 8.882-3.973 8.882-8.864-3.981-8.864-8.882-8.864zm81.459-17.727h-81.459c14.694 0 26.647 11.928 26.647 26.591s-11.953 26.591-26.647 26.591h81.459c2.68-7.548 8.683-13.538 16.247-16.213v-20.757c-7.564-2.674-13.567-8.664-16.247-16.212zm-28.165 35.454c-4.905 0-8.882-3.969-8.882-8.864 0-4.896 3.977-8.864 8.882-8.864s8.882 3.968 8.882 8.864c0 4.895-3.977 8.864-8.882 8.864zm-79.941-8.863c0-14.663 11.953-26.591 26.647-26.591h-81.459c-2.68 7.548-8.683 13.538-16.247 16.212v20.757c7.564 2.675 13.566 8.665 16.247 16.213h81.459c-14.694 0-26.647-11.928-26.647-26.591zm-26.647 8.863c-4.905 0-8.882-3.969-8.882-8.864 0-4.896 3.977-8.864 8.882-8.864s8.882 3.968 8.882 8.864c0 4.895-3.977 8.864-8.882 8.864zm-97.706 97.5c0 4.899 3.973 8.864 8.882 8.864h284.235c4.91 0 8.882-3.964 8.882-8.864v-8.864h-301.999zm293.118-186.136h-284.236c-4.91 0-8.882 3.964-8.882 8.864v150.682h302v-150.682c0-4.9-3.973-8.864-8.882-8.864zm-26.647 97.5c0 4.899-3.973 8.864-8.882 8.864-4.901 0-8.882 3.973-8.882 8.864 0 4.899-3.973 8.864-8.882 8.864h-177.649c-4.91 0-8.882-3.964-8.882-8.864 0-4.891-3.981-8.864-8.882-8.864-4.91 0-8.882-3.965-8.882-8.864v-35.455c0-4.899 3.973-8.864 8.882-8.864 4.901 0 8.882-3.973 8.882-8.864 0-4.899 3.973-8.864 8.882-8.864h177.647c4.91 0 8.882 3.964 8.882 8.864 0 4.891 3.981 8.864 8.882 8.864 4.91 0 8.882 3.964 8.882 8.864v35.455z" fill="url(#SVGID_2_)"/></g></g></g></svg>