<svg id="Capa_1" enable-background="new 0 0 512 512" height="512" viewBox="0 0 512 512" width="512" xmlns="http://www.w3.org/2000/svg" xmlns:xlink="http://www.w3.org/1999/xlink"><linearGradient id="SVGID_1_" gradientUnits="userSpaceOnUse" x1="256" x2="256" y1="512" y2="0"><stop offset="0" stop-color="#ffc2cc"/><stop offset="1" stop-color="#fff2f4"/></linearGradient><linearGradient id="SVGID_2_" gradientUnits="userSpaceOnUse" x1="256" x2="256" y1="407" y2="105"><stop offset="0" stop-color="#ffa68d"/><stop offset="1" stop-color="#fd3a84"/></linearGradient><g><g><circle cx="256" cy="256" fill="url(#SVGID_1_)" r="256"/></g><g><g><path d="m256 300.412c-14.705 0-26.667 11.953-26.667 26.647s11.962 26.647 26.667 26.647 26.667-11.953 26.667-26.647-11.962-26.647-26.667-26.647zm0 35.529c-4.909 0-8.889-3.977-8.889-8.882 0-4.906 3.98-8.882 8.889-8.882s8.889 3.976 8.889 8.882c0 4.905-3.98 8.882-8.889 8.882zm71.111-230.941h-142.222c-4.913 0-8.889 3.973-8.889 8.882v213.177c0 44.082 35.885 79.941 80 79.941s80-35.859 80-79.941v-213.177c0-4.909-3.976-8.882-8.889-8.882zm-71.111 71.059c4.909 0 8.889 3.976 8.889 8.882 0 4.905-3.98 8.882-8.889 8.882s-8.889-3.977-8.889-8.882c0-4.906 3.98-8.882 8.889-8.882zm0 35.529c4.909 0 8.889 3.976 8.889 8.883 0 4.905-3.98 8.882-8.889 8.882s-8.889-3.977-8.889-8.882c0-4.907 3.98-8.883 8.889-8.883zm-35.556-71.059c4.909 0 8.889 3.976 8.889 8.882 0 4.905-3.98 8.883-8.889 8.883s-8.889-3.977-8.889-8.883c.001-4.906 3.981-8.882 8.889-8.882zm0 35.53c4.909 0 8.889 3.976 8.889 8.882 0 4.905-3.98 8.882-8.889 8.882s-8.889-3.977-8.889-8.882c.001-4.906 3.981-8.882 8.889-8.882zm0 35.529c4.909 0 8.889 3.976 8.889 8.883 0 4.905-3.98 8.882-8.889 8.882s-8.889-3.977-8.889-8.882c.001-4.907 3.981-8.883 8.889-8.883zm0 35.53h17.778c4.913 0 8.889 3.973 8.889 8.882s-3.976 8.882-8.889 8.882h-17.778c-4.913 0-8.889-3.973-8.889-8.882s3.976-8.882 8.889-8.882zm35.556 124.353c-24.505 0-44.444-19.925-44.444-44.412s19.939-44.412 44.444-44.412 44.444 19.925 44.444 44.412-19.939 44.412-44.444 44.412zm35.556-106.589h-17.778c-4.913 0-8.889-3.973-8.889-8.882s3.976-8.882 8.889-8.882h17.778c4.913 0 8.889 3.973 8.889 8.882s-3.976 8.882-8.889 8.882zm0-35.529c-4.909 0-8.889-3.977-8.889-8.882 0-4.906 3.98-8.883 8.889-8.883s8.889 3.976 8.889 8.883c-.001 4.905-3.981 8.882-8.889 8.882zm0-35.53c-4.909 0-8.889-3.977-8.889-8.882 0-4.906 3.98-8.882 8.889-8.882s8.889 3.976 8.889 8.882c-.001 4.905-3.981 8.882-8.889 8.882zm0-35.529c-4.909 0-8.889-3.977-8.889-8.883s3.98-8.882 8.889-8.882 8.889 3.976 8.889 8.882c-.001 4.906-3.981 8.883-8.889 8.883z" fill="url(#SVGID_2_)"/></g></g></g></svg>