<svg id="Capa_1" enable-background="new 0 0 512 512" height="512" viewBox="0 0 512 512" width="512" xmlns="http://www.w3.org/2000/svg" xmlns:xlink="http://www.w3.org/1999/xlink"><linearGradient id="SVGID_1_" gradientUnits="userSpaceOnUse" x1="256" x2="256" y1="512" y2="0"><stop offset="0" stop-color="#addcff"/><stop offset=".5028" stop-color="#eaf6ff"/><stop offset="1" stop-color="#eaf6ff"/></linearGradient><linearGradient id="SVGID_2_" gradientUnits="userSpaceOnUse" x1="256" x2="256" y1="362.5" y2="149.5"><stop offset="0" stop-color="#00c0ff"/><stop offset="1" stop-color="#5558ff"/></linearGradient><g><g><circle cx="256" cy="256" fill="url(#SVGID_1_)" r="256"/></g><g><g><path d="m149.412 238.25h142.118v-35.5h-142.118zm248.709-35.5h-44.416v133.114c0 14.711 11.926 26.636 26.636 26.636h.022c14.711 0 26.636-11.925 26.636-26.636v-124.235c.001-4.904-3.974-8.879-8.878-8.879zm-62.18-44.375c0-4.906-3.973-8.875-8.882-8.875h-213.177c-4.91 0-8.882 3.969-8.882 8.875v168.625c0 19.579 15.935 35.5 35.529 35.5h204.521c-5.636-7.439-9.109-16.597-9.109-26.625zm-35.529 168.625h-159.883c-4.909 0-8.882-3.969-8.882-8.875s3.973-8.875 8.882-8.875h159.882c4.91 0 8.883 3.969 8.883 8.875s-3.973 8.875-8.882 8.875zm0-35.5h-159.883c-4.909 0-8.882-3.969-8.882-8.875s3.973-8.875 8.882-8.875h159.882c4.91 0 8.883 3.969 8.883 8.875s-3.973 8.875-8.882 8.875zm8.882-44.375c0 4.906-3.973 8.875-8.883 8.875h-159.882c-4.909 0-8.882-3.969-8.882-8.875v-53.25c0-4.906 3.973-8.875 8.882-8.875h159.882c4.91 0 8.883 3.969 8.883 8.875z" fill="url(#SVGID_2_)"/></g></g></g></svg>