<svg id="Capa_1" enable-background="new 0 0 512 512" height="512" viewBox="0 0 512 512" width="512" xmlns="http://www.w3.org/2000/svg" xmlns:xlink="http://www.w3.org/1999/xlink"><linearGradient id="SVGID_1_" gradientUnits="userSpaceOnUse" x1="256" x2="256" y1="512" y2="0"><stop offset="0" stop-color="#ffe59a"/><stop offset="1" stop-color="#ffffd5"/></linearGradient><linearGradient id="SVGID_2_" gradientUnits="userSpaceOnUse" x1="256.002" x2="256.002" y1="407" y2="105"><stop offset="0" stop-color="#ffde00"/><stop offset="1" stop-color="#fd5900"/></linearGradient><g><g><circle cx="256" cy="256" fill="url(#SVGID_1_)" r="256"/></g><g><g><path d="m233.954 231.133c-2.151-5.75-3.432-11.832-3.432-18.019v-54.821h-53.413v54.821c0 6.187-1.281 12.269-3.432 18.019l30.138 30.071zm9.418 15.723-33.263 33.188c-1.739 1.735-4.016 2.602-6.294 2.602s-4.555-.867-6.294-2.602l-33.262-33.188c-.81.936-1.468 1.987-2.346 2.864-12.971 12.942-20.413 30.863-20.413 49.165v1.527h124.631v-1.527c0-18.302-7.442-36.223-20.412-49.165-.879-.876-1.537-1.928-2.347-2.864zm-101.872 106.85h124.631v-35.529h-124.631zm89.022-239.824c0-4.91-3.981-8.882-8.902-8.882h-35.609c-4.921 0-8.902 3.973-8.902 8.882v26.647h53.413zm-89.022 284.236c0 4.91 3.982 8.882 8.902 8.882h106.826c4.92 0 8.902-3.973 8.902-8.882v-26.647h-124.63zm186.946-44.412c24.386 0 43.696-20.691 41.947-44.958l-6.364-88.91c-.33-4.649-4.208-8.249-8.876-8.249h-53.413c-4.668 0-8.546 3.6-8.876 8.249l-6.364 88.91c-1.747 24.234 17.523 44.958 41.946 44.958zm26.707 35.529h-17.804v-18.69c-2.946.448-5.893.925-8.902.925s-5.956-.477-8.902-.925v18.69h-17.805c-4.92 0-8.902 3.973-8.902 8.882s3.981 8.883 8.902 8.883h53.413c4.92 0 8.902-3.973 8.902-8.882s-3.982-8.883-8.902-8.883z" fill="url(#SVGID_2_)"/></g></g></g></svg>