<svg id="Capa_1" enable-background="new 0 0 512 512" height="512" viewBox="0 0 512 512" width="512" xmlns="http://www.w3.org/2000/svg" xmlns:xlink="http://www.w3.org/1999/xlink"><linearGradient id="SVGID_1_" gradientUnits="userSpaceOnUse" x1="256" x2="256" y1="512" y2="0"><stop offset="0" stop-color="#ffe59a"/><stop offset="1" stop-color="#ffffd5"/></linearGradient><linearGradient id="SVGID_2_" gradientUnits="userSpaceOnUse" x1="256" x2="256" y1="407" y2="105"><stop offset="0" stop-color="#ffde00"/><stop offset="1" stop-color="#fd5900"/></linearGradient><g><g><circle cx="256" cy="256" fill="url(#SVGID_1_)" r="256"/></g><g><g><path d="m398.118 105h-284.236c-4.91 0-8.882 3.973-8.882 8.882s3.973 8.882 8.882 8.882h8.882v257.588c0 4.909 3.973 8.882 8.882 8.882h26.647v8.882c0 4.91 3.973 8.882 8.882 8.882 4.91 0 8.882-3.973 8.882-8.882v-8.882h159.882v8.882c0 4.91 3.973 8.882 8.882 8.882 4.91 0 8.882-3.973 8.882-8.882v-8.882h26.647c4.91 0 8.882-3.973 8.882-8.882v-257.587h8.882c4.91 0 8.882-3.973 8.882-8.882s-3.969-8.883-8.878-8.883zm-44.412 239.823c0 4.91-3.973 8.882-8.882 8.882h-177.648c-4.91 0-8.882-3.973-8.882-8.882v-195.411c0-4.909 3.973-8.882 8.882-8.882h177.647c4.91 0 8.882 3.973 8.882 8.882v195.411zm-88.824-8.882h71.059v-177.647h-71.059zm17.765-115.47c0-4.91 3.973-8.883 8.882-8.883 4.91 0 8.882 3.973 8.882 8.883v35.529c0 4.91-3.973 8.882-8.882 8.882-4.91 0-8.882-3.973-8.882-8.882zm-106.588 115.47h71.059v-177.647h-71.059zm35.529-115.47c0-4.91 3.973-8.883 8.882-8.883 4.91 0 8.882 3.973 8.882 8.883v35.529c0 4.91-3.973 8.882-8.882 8.882-4.91 0-8.882-3.973-8.882-8.882z" fill="url(#SVGID_2_)"/></g></g></g></svg>