<svg id="Capa_1" enable-background="new 0 0 512 512" height="512" viewBox="0 0 512 512" width="512" xmlns="http://www.w3.org/2000/svg" xmlns:xlink="http://www.w3.org/1999/xlink"><linearGradient id="SVGID_1_" gradientUnits="userSpaceOnUse" x1="256" x2="256" y1="512" y2="0"><stop offset="0" stop-color="#addcff"/><stop offset=".5028" stop-color="#eaf6ff"/><stop offset="1" stop-color="#eaf6ff"/></linearGradient><linearGradient id="SVGID_2_" gradientUnits="userSpaceOnUse" x1="256" x2="256" y1="407" y2="105"><stop offset="0" stop-color="#00c0ff"/><stop offset="1" stop-color="#5558ff"/></linearGradient><g><g><circle cx="256" cy="256" fill="url(#SVGID_1_)" r="256"/></g><g><g><path d="m238.212 113.882c0-4.91-3.978-8.882-8.893-8.882h-35.572c-4.915 0-8.893 3.973-8.893 8.882v44.412h53.358zm-26.679 133.236c-7.252 0-17.786 17.305-17.786 44.412s10.534 44.412 17.786 44.412 17.786-17.305 17.786-44.412-10.534-44.412-17.786-44.412zm65.595-23.325c-1.581-18.307-9.268-34.897-21.356-47.734h-88.474c-12.09 12.84-19.778 29.44-21.359 47.76l-14.408 173.561c-.208 2.481.634 4.927 2.319 6.757 1.676 1.822 4.056 2.863 6.539 2.863h142.288c2.484 0 4.863-1.041 6.539-2.863 1.685-1.83 2.527-4.276 2.319-6.757zm-65.595 129.913c-20.278 0-35.572-26.734-35.572-62.177s15.294-62.176 35.572-62.176 35.572 26.734 35.572 62.176c0 35.443-15.293 62.177-35.572 62.177zm133.395-146.385v-93.438c0-4.91-3.977-8.882-8.893-8.882h-35.572c-4.915 0-8.893 3.973-8.893 8.882v99.128c0 19.586 3.144 38.938 9.345 57.501 5.602 16.958 8.441 34.428 8.441 51.932v75.674c0 4.91 3.978 8.882 8.893 8.882h35.572c4.916 0 8.893-3.973 8.893-8.882v-81.364c0-19.586-3.144-38.938-9.345-57.501-5.601-16.958-8.441-34.428-8.441-51.932zm26.679-102.321h-8.893v88.823h8.893c4.916 0 8.893-3.973 8.893-8.882v-71.059c0-4.909-3.978-8.882-8.893-8.882z" fill="url(#SVGID_2_)"/></g></g></g></svg>