<svg id="Capa_1" enable-background="new 0 0 512 512" height="512" viewBox="0 0 512 512" width="512" xmlns="http://www.w3.org/2000/svg" xmlns:xlink="http://www.w3.org/1999/xlink"><linearGradient id="SVGID_1_" gradientUnits="userSpaceOnUse" x1="256" x2="256" y1="512" y2="0"><stop offset="0" stop-color="#ffe59a"/><stop offset="1" stop-color="#ffffd5"/></linearGradient><linearGradient id="SVGID_2_" gradientUnits="userSpaceOnUse" x1="256" x2="256" y1="407" y2="105"><stop offset="0" stop-color="#ffde00"/><stop offset="1" stop-color="#fd5900"/></linearGradient><g><g><circle cx="256" cy="256" fill="url(#SVGID_1_)" r="256"/></g><g><g><path d="m327.111 105h-142.222c-4.913 0-8.889 3.973-8.889 8.882v151h160v-151c0-4.909-3.976-8.882-8.889-8.882zm-88.889 142.118h-17.778c-4.913 0-8.889-3.973-8.889-8.882 0-4.91 3.976-8.882 8.889-8.882h17.778c4.913 0 8.889 3.973 8.889 8.882s-3.976 8.882-8.889 8.882zm-62.222 133.235c0 4.909 3.976 8.882 8.889 8.882h8.889v8.882c0 4.91 3.976 8.882 8.889 8.882s8.889-3.973 8.889-8.882v-8.882h88.889v8.882c0 4.91 3.976 8.882 8.889 8.882s8.889-3.973 8.889-8.882v-8.882h8.889c4.913 0 8.889-3.973 8.889-8.882v-97.706h-160.001zm44.444-79.941h17.778c4.913 0 8.889 3.973 8.889 8.883 0 4.909-3.976 8.882-8.889 8.882h-17.778c-4.913 0-8.889-3.973-8.889-8.882.001-4.91 3.976-8.883 8.889-8.883z" fill="url(#SVGID_2_)"/></g></g></g></svg>