<svg id="Capa_1" enable-background="new 0 0 512 512" height="512" viewBox="0 0 512 512" width="512" xmlns="http://www.w3.org/2000/svg" xmlns:xlink="http://www.w3.org/1999/xlink"><linearGradient id="SVGID_1_" gradientUnits="userSpaceOnUse" x1="256" x2="256" y1="512" y2="0"><stop offset="0" stop-color="#ffc2cc"/><stop offset="1" stop-color="#fff2f4"/></linearGradient><linearGradient id="SVGID_2_" gradientUnits="userSpaceOnUse" x1="255.996" x2="255.996" y1="407" y2="105"><stop offset="0" stop-color="#ffa68d"/><stop offset="1" stop-color="#fd3a84"/></linearGradient><g><g><circle cx="256" cy="256" fill="url(#SVGID_1_)" r="256"/></g><path d="m396.432 230.472c-5.713-5.713-13.215-9.327-21.158-10.306-20.788-33.959-49.483-62.654-83.442-83.442-.979-7.943-4.593-15.445-10.306-21.158-14.07-14.088-36.991-14.088-51.061 0-5.942 5.942-9.592 13.744-10.403 22.004-38.957 24.676-57.823 43.541-82.499 82.499-8.26.811-16.062 4.461-22.004 10.403-14.079 14.079-14.079 36.982 0 51.061 5.713 5.713 13.215 9.327 21.158 10.306 20.788 33.959 49.483 62.654 83.442 83.442.979 7.943 4.593 15.445 10.306 21.158 7.035 7.043 16.283 10.561 25.531 10.561s18.496-3.518 25.531-10.561c5.942-5.942 9.592-13.744 10.403-22.004 38.957-24.676 57.823-43.541 82.499-82.499 8.26-.811 16.062-4.461 22.004-10.403 14.078-14.079 14.078-36.983-.001-51.061zm-158.491-37.662h9.027v-9.027c0-4.99 4.038-9.027 9.027-9.027s9.027 4.038 9.027 9.027v9.027h9.027c4.99 0 9.027 4.038 9.027 9.027 0 4.99-4.038 9.027-9.027 9.027h-9.027v9.027c0 4.99-4.038 9.027-9.027 9.027s-9.027-4.038-9.027-9.027v-9.027h-9.027c-4.99 0-9.027-4.038-9.027-9.027-.001-4.989 4.037-9.027 9.027-9.027zm-18.055 72.22h-9.027v9.027c0 4.99-4.038 9.027-9.027 9.027s-9.027-4.038-9.027-9.027v-9.027h-9.027c-4.99 0-9.027-4.038-9.027-9.027 0-4.99 4.038-9.027 9.027-9.027h9.027v-9.027c0-4.99 4.038-9.027 9.027-9.027s9.027 4.038 9.027 9.027v9.027h9.027c4.99 0 9.027 4.038 9.027 9.027s-4.037 9.027-9.027 9.027zm54.164 54.164h-9.027v9.027c0 4.99-4.038 9.027-9.027 9.027s-9.027-4.038-9.027-9.027v-9.027h-9.027c-4.99 0-9.027-4.038-9.027-9.027 0-4.99 4.038-9.027 9.027-9.027h9.027v-9.027c0-4.99 4.038-9.027 9.027-9.027s9.027 4.038 9.027 9.027v9.027h9.027c4.99 0 9.027 4.038 9.027 9.027.001 4.99-4.037 9.027-9.027 9.027zm54.165-54.164h-9.027v9.027c0 4.99-4.038 9.027-9.027 9.027-4.99 0-9.027-4.038-9.027-9.027v-9.027h-9.027c-4.99 0-9.027-4.038-9.027-9.027 0-4.99 4.038-9.027 9.027-9.027h9.027v-9.027c0-4.99 4.038-9.027 9.027-9.027 4.99 0 9.027 4.038 9.027 9.027v9.027h9.027c4.99 0 9.027 4.038 9.027 9.027s-4.037 9.027-9.027 9.027z" fill="url(#SVGID_2_)"/></g></svg>