<svg id="Capa_1" enable-background="new 0 0 512 512" height="512" viewBox="0 0 512 512" width="512" xmlns="http://www.w3.org/2000/svg" xmlns:xlink="http://www.w3.org/1999/xlink"><linearGradient id="SVGID_1_" gradientUnits="userSpaceOnUse" x1="256" x2="256" y1="512" y2="0"><stop offset="0" stop-color="#ffbef9"/><stop offset="1" stop-color="#fff1ff"/></linearGradient><linearGradient id="SVGID_2_" gradientUnits="userSpaceOnUse" x1="255.999" x2="255.999" y1="407" y2="105"><stop offset="0" stop-color="#ff81ff"/><stop offset="1" stop-color="#a93aff"/></linearGradient><g><g><circle cx="256" cy="256" fill="url(#SVGID_1_)" r="256"/></g><g><g><path d="m406.853 316.589-17.765-79.941c-.763-4.224-4.441-7.295-8.735-7.295h-195.412c-4.294 0-7.971 3.071-8.735 7.295l-17.765 79.941c-.477 2.594.225 5.257 1.917 7.278 1.683 2.021 4.181 3.192 6.818 3.192 4.675 0 6.575 1.171 9.724 3.114 3.624 2.238 8.634 5.111 16.923 5.585v19.584c-10.317 3.679-17.765 13.446-17.765 25.011 0 14.694 11.953 26.647 26.647 26.647s26.647-11.953 26.647-26.647c0-11.565-7.448-21.332-17.765-25.011v-23.111c1.329-.699 2.527-1.407 3.591-2.058 3.157-1.943 5.066-3.114 9.732-3.114 4.667 0 6.575 1.171 9.732 3.114 3.973 2.429 9.412 5.768 19.222 5.768 9.715 0 15.11-3.331 19.057-5.768 3.149-1.943 5.048-3.114 9.724-3.114s6.575 1.171 9.724 3.114c3.947 2.438 9.342 5.768 19.057 5.768 9.811 0 15.249-3.34 19.222-5.768 3.157-1.943 5.066-3.114 9.732-3.114s6.575 1.171 9.732 3.114c1.064.651 2.262 1.359 3.591 2.058v23.111c-10.317 3.679-17.765 13.446-17.765 25.011 0 14.694 11.953 26.647 26.647 26.647s26.647-11.953 26.647-26.647c0-11.565-7.448-21.332-17.765-25.011v-19.584c8.289-.474 13.3-3.347 16.923-5.585 3.148-1.943 5.048-3.114 9.724-3.114 2.637 0 5.135-1.171 6.818-3.192 1.695-2.021 2.398-4.684 1.921-7.278zm-53.147-124.401v19.401h17.765v-19.401c10.317-3.679 17.765-13.446 17.765-25.011v-35.53c0-4.909-3.973-8.882-8.882-8.882h-35.53c-4.909 0-8.882 3.973-8.882 8.882v35.53c-.001 11.564 7.447 21.331 17.764 25.011zm-71.059-33.072v-9.704c0-4.909-3.973-8.882-8.882-8.882s-8.882 3.973-8.882 8.882v9.704c-27.093 3.939-48.464 25.342-52.396 52.472h122.557c-3.933-27.13-25.304-48.533-52.397-52.472zm-106.588-9.704v63.744c2.793-.98 5.774-1.568 8.882-1.568h8.882v-62.177c0-24.487-19.925-44.412-44.412-44.412h-35.529c-4.91 0-8.882 3.973-8.882 8.882s3.973 8.882 8.882 8.882h35.529c14.695.002 26.648 11.955 26.648 26.649z" fill="url(#SVGID_2_)"/></g></g></g></svg>