<svg id="Capa_1" enable-background="new 0 0 512 512" height="512" viewBox="0 0 512 512" width="512" xmlns="http://www.w3.org/2000/svg" xmlns:xlink="http://www.w3.org/1999/xlink"><linearGradient id="SVGID_1_" gradientUnits="userSpaceOnUse" x1="256" x2="256" y1="512" y2="0"><stop offset="0" stop-color="#ffc2cc"/><stop offset="1" stop-color="#fff2f4"/></linearGradient><linearGradient id="SVGID_2_" gradientUnits="userSpaceOnUse" x1="256" x2="256" y1="371.5" y2="140.5"><stop offset="0" stop-color="#ffa68d"/><stop offset="1" stop-color="#fd3a84"/></linearGradient><g><g><circle cx="256" cy="256" fill="url(#SVGID_1_)" r="256"/></g><g><g><path d="m193.824 229.346h-79.941c-4.91 0-8.882 3.974-8.882 8.885v35.539c0 4.911 3.973 8.885 8.882 8.885h79.941zm17.764 53.308h33.378l-33.378-33.387zm186.53-53.308h-131.084l53.294 53.308h77.79c4.91 0 8.882-3.974 8.882-8.885v-35.539c0-4.91-3.973-8.884-8.882-8.884zm-67.309 88.919-137.239-137.275c16.956-14.243 38.727-22.721 62.43-22.721 37.648 0 70.473 21.329 86.761 53.308h19.509c-17.562-42.269-58.686-71.077-106.27-71.077-56.818 0-93.003 39.144-106.271 71.077h19.509c3.29-6.457 7.411-12.341 11.952-17.842l137.24 137.275c-16.956 14.243-38.727 22.721-62.43 22.721-37.648 0-70.473-21.329-86.761-53.308h-19.509c17.562 42.269 58.686 71.077 106.27 71.077 56.818 0 93.003-39.144 106.271-71.077h-19.509c-3.29 6.457-7.412 12.341-11.953 17.842z" fill="url(#SVGID_2_)"/></g></g></g></svg>