<svg id="Capa_1" enable-background="new 0 0 512 512" height="512" viewBox="0 0 512 512" width="512" xmlns="http://www.w3.org/2000/svg" xmlns:xlink="http://www.w3.org/1999/xlink"><linearGradient id="SVGID_1_" gradientUnits="userSpaceOnUse" x1="256" x2="256" y1="512" y2="0"><stop offset="0" stop-color="#ffe59a"/><stop offset="1" stop-color="#ffffd5"/></linearGradient><linearGradient id="SVGID_2_" gradientUnits="userSpaceOnUse" x1="256" x2="256" y1="371.5" y2="140.5"><stop offset="0" stop-color="#ffde00"/><stop offset="1" stop-color="#fd5900"/></linearGradient><g><g><circle cx="256" cy="256" fill="url(#SVGID_1_)" r="256"/></g><g><g><path d="m316.476 169.479c27.48 10.577 51.88 28.337 70.573 51.355 3.11 3.816 8.699 4.375 12.5 1.293 3.808-3.098 4.38-8.694 1.292-12.503-20.645-25.422-47.613-45.039-77.981-56.735-4.545-1.744-9.715.512-11.485 5.102-1.76 4.582.521 9.718 5.101 11.488zm81.642 184.252h-133.236v-17.769h97.706c4.91 0 8.882-3.974 8.882-8.885 0-60.686-47.067-110.484-106.588-115.05v-19.856c10.317-3.68 17.765-13.449 17.765-25.017 0-14.698-11.953-26.654-26.647-26.654s-26.647 11.956-26.647 26.654c0 11.568 7.448 21.337 17.765 25.017v19.856c-59.521 4.566-106.588 54.364-106.588 115.05 0 4.911 3.973 8.885 8.882 8.885h97.706v17.769h-133.236c-4.91 0-8.882 3.974-8.882 8.885s3.973 8.885 8.882 8.885h284.235c4.91 0 8.882-3.974 8.882-8.885.001-4.911-3.972-8.885-8.881-8.885zm-90.593-149.555c18.398 7.748 35.13 19.8 48.402 34.853 3.239 3.689 8.88 4.03 12.534.79 3.678-3.245 4.033-8.859.789-12.537-15.024-17.049-33.985-30.697-54.838-39.486-4.458-1.865-9.724.208-11.632 4.746-1.9 4.519.217 9.725 4.745 11.634zm-195.074 17.951c3.803 3.083 9.391 2.521 12.5-1.293 18.693-23.018 43.093-40.779 70.573-51.355 4.58-1.77 6.861-6.906 5.1-11.487-1.77-4.59-6.922-6.846-11.485-5.102-30.368 11.696-57.336 31.313-77.981 56.735-3.087 3.809-2.515 9.405 1.293 12.502zm85.137-34.332c-20.853 8.789-39.814 22.437-54.838 39.486-3.244 3.679-2.888 9.292.789 12.537 3.656 3.243 9.296 2.898 12.534-.79 13.271-15.053 30.004-27.105 48.402-34.853 4.528-1.909 6.644-7.115 4.745-11.635-1.908-4.537-7.173-6.611-11.632-4.745z" fill="url(#SVGID_2_)"/></g></g></g></svg>