<svg id="Capa_1" enable-background="new 0 0 512 512" height="512" viewBox="0 0 512 512" width="512" xmlns="http://www.w3.org/2000/svg" xmlns:xlink="http://www.w3.org/1999/xlink"><linearGradient id="SVGID_1_" gradientUnits="userSpaceOnUse" x1="256" x2="256" y1="512" y2="0"><stop offset="0" stop-color="#c3ffe8"/><stop offset=".9973" stop-color="#f0fff4"/></linearGradient><linearGradient id="SVGID_2_" gradientUnits="userSpaceOnUse" x1="256" x2="256" y1="407" y2="105"><stop offset="0" stop-color="#9cffac"/><stop offset="1" stop-color="#00b59c"/></linearGradient><g><g><circle cx="256" cy="256" fill="url(#SVGID_1_)" r="256"/></g><g><g><path d="m380.6 105h-249.2c-4.919 0-8.9 3.973-8.9 8.882s3.981 8.882 8.9 8.882h8.9v275.353c0 4.91 3.981 8.882 8.9 8.882h26.7v-257.587c0-4.909 3.981-8.882 8.9-8.882h142.4c4.919 0 8.9 3.973 8.9 8.882v257.588h26.7c4.919 0 8.9-3.973 8.9-8.882v-275.353h8.9c4.919 0 8.9-3.973 8.9-8.882s-3.981-8.883-8.9-8.883zm-106.8 106.588h-35.6v17.765h35.6zm-80.1 195.412h124.6v-248.706h-124.6zm106.8-115.471c0 4.91-3.981 8.882-8.9 8.882h-17.8c-4.919 0-8.9-3.973-8.9-8.882s3.981-8.882 8.9-8.882h17.8c4.919 0 8.9 3.973 8.9 8.882zm-80.1-88.823c0-4.909 3.981-8.882 8.9-8.882h53.4c4.919 0 8.9 3.973 8.9 8.882v35.53c0 4.909-3.981 8.882-8.9 8.882h-53.4c-4.919 0-8.9-3.973-8.9-8.882z" fill="url(#SVGID_2_)"/></g></g></g></svg>