<svg id="Capa_1" enable-background="new 0 0 512 512" height="512" viewBox="0 0 512 512" width="512" xmlns="http://www.w3.org/2000/svg" xmlns:xlink="http://www.w3.org/1999/xlink"><linearGradient id="SVGID_1_" gradientUnits="userSpaceOnUse" x1="256" x2="256" y1="512" y2="0"><stop offset="0" stop-color="#ffbef9"/><stop offset="1" stop-color="#fff1ff"/></linearGradient><linearGradient id="SVGID_2_" gradientUnits="userSpaceOnUse" x1="256" x2="256" y1="407" y2="105"><stop offset="0" stop-color="#ff81ff"/><stop offset="1" stop-color="#a93aff"/></linearGradient><g><g><circle cx="256" cy="256" fill="url(#SVGID_1_)" r="256"/></g><g><g><path d="m398.118 318.177h-26.647v-97.706c0-63.669-51.803-115.471-115.471-115.471s-115.471 51.802-115.471 115.471v97.706h-26.647c-4.91 0-8.882 3.973-8.882 8.882s3.973 8.882 8.882 8.882h26.647v19.401c-10.317 3.679-17.765 13.446-17.765 25.011 0 14.694 11.953 26.647 26.647 26.647s26.647-11.953 26.647-26.647c0-11.565-7.448-21.332-17.765-25.011v-19.401h195.412v19.401c-10.317 3.679-17.765 13.446-17.765 25.011 0 14.694 11.953 26.647 26.647 26.647s26.647-11.953 26.647-26.647c0-11.565-7.448-21.332-17.765-25.011v-19.401h26.647c4.91 0 8.882-3.973 8.882-8.882.002-4.91-3.971-8.882-8.88-8.882zm-44.412 0h-17.765v-54.33c-11.298 11.566-27.007 18.8-44.412 18.8h-71.059c-17.405 0-33.114-7.234-44.412-18.8v54.33h-17.765v-97.706c0-53.875 43.831-97.706 97.706-97.706s97.706 43.831 97.706 97.706v97.706zm-62.177-133.236c0-4.91-3.973-8.882-8.882-8.882h-53.294c-4.91 0-8.882 3.973-8.882 8.882v26.647h-35.53c-4.909 0-8.882 3.973-8.882 8.883 0 24.487 19.925 44.412 44.412 44.412h71.059c24.487 0 44.412-19.925 44.412-44.412 0-4.91-3.973-8.883-8.882-8.883h-35.53v-26.647zm-17.764 26.647h-35.529v-17.765h35.529z" fill="url(#SVGID_2_)"/></g></g></g></svg>