<svg id="Capa_1" enable-background="new 0 0 512 512" height="512" viewBox="0 0 512 512" width="512" xmlns="http://www.w3.org/2000/svg" xmlns:xlink="http://www.w3.org/1999/xlink"><linearGradient id="SVGID_1_" gradientUnits="userSpaceOnUse" x1="256" x2="256" y1="512" y2="0"><stop offset="0" stop-color="#ffe59a"/><stop offset="1" stop-color="#ffffd5"/></linearGradient><linearGradient id="SVGID_2_" gradientUnits="userSpaceOnUse" x1="256" x2="256" y1="407" y2="105"><stop offset="0" stop-color="#ffde00"/><stop offset="1" stop-color="#fd5900"/></linearGradient><g><g><circle cx="256" cy="256" fill="url(#SVGID_1_)" r="256"/></g><path d="m291.556 229.369h-35.556c-14.705 0-26.667-11.952-26.667-26.645v-15.864c0-14.016 9.505-26.124 22.118-28.171 7.995-1.318 15.747.798 21.814 5.967 5.972 5.074 9.401 12.481 9.401 20.304 0 4.909 3.976 8.882 8.889 8.882h35.556c4.913 0 8.889-3.972 8.889-8.882 0-22.464-9.549-44.026-26.189-59.152-16.892-15.343-38.845-22.664-61.641-20.408-40.469 3.86-72.17 40.149-72.17 82.614v192.341c0 14.693 11.962 26.645 26.667 26.645h106.667c14.704 0 26.666-11.952 26.666-26.645v-106.578c0-24.485-19.939-44.408-44.444-44.408zm-71.112 133.223c-4.909 0-8.889-3.977-8.889-8.882 0-4.906 3.98-8.882 8.889-8.882s8.889 3.976 8.889 8.882-3.98 8.882-8.889 8.882zm0-35.526c-4.909 0-8.889-3.977-8.889-8.882 0-4.906 3.98-8.882 8.889-8.882s8.889 3.976 8.889 8.882c0 4.905-3.98 8.882-8.889 8.882zm0-35.526c-4.909 0-8.889-3.977-8.889-8.882 0-4.906 3.98-8.882 8.889-8.882s8.889 3.976 8.889 8.882c0 4.905-3.98 8.882-8.889 8.882zm35.556 71.052c-4.909 0-8.889-3.977-8.889-8.882 0-4.906 3.98-8.882 8.889-8.882s8.889 3.976 8.889 8.882-3.98 8.882-8.889 8.882zm0-35.526c-4.909 0-8.889-3.977-8.889-8.882 0-4.906 3.98-8.882 8.889-8.882s8.889 3.976 8.889 8.882c0 4.905-3.98 8.882-8.889 8.882zm0-35.526c-4.909 0-8.889-3.977-8.889-8.882 0-4.906 3.98-8.882 8.889-8.882s8.889 3.976 8.889 8.882c0 4.905-3.98 8.882-8.889 8.882zm35.556 71.052c-4.909 0-8.889-3.977-8.889-8.882 0-4.906 3.98-8.882 8.889-8.882s8.889 3.976 8.889 8.882c-.001 4.906-3.981 8.882-8.889 8.882zm0-35.526c-4.909 0-8.889-3.977-8.889-8.882 0-4.906 3.98-8.882 8.889-8.882s8.889 3.976 8.889 8.882c-.001 4.905-3.981 8.882-8.889 8.882zm0-35.526c-4.909 0-8.889-3.977-8.889-8.882 0-4.906 3.98-8.882 8.889-8.882s8.889 3.976 8.889 8.882c-.001 4.905-3.981 8.882-8.889 8.882z" fill="url(#SVGID_2_)"/></g></svg>