<svg id="Capa_1" enable-background="new 0 0 512 512" height="512" viewBox="0 0 512 512" width="512" xmlns="http://www.w3.org/2000/svg" xmlns:xlink="http://www.w3.org/1999/xlink"><linearGradient id="SVGID_1_" gradientUnits="userSpaceOnUse" x1="256" x2="256" y1="512" y2="0"><stop offset="0" stop-color="#c3ffe8"/><stop offset=".9973" stop-color="#f0fff4"/></linearGradient><linearGradient id="SVGID_2_" gradientUnits="userSpaceOnUse" x1="256" x2="256" y1="407" y2="105"><stop offset="0" stop-color="#9cffac"/><stop offset="1" stop-color="#00b59c"/></linearGradient><g><g><circle cx="256" cy="256" fill="url(#SVGID_1_)" r="256"/></g><g><g><path d="m167.25 407h53.25v-213.177h-53.25zm71 0h53.25v-213.177h-53.25zm150.875-302h-266.25c-4.906 0-8.875 3.973-8.875 8.882v284.235c0 4.91 3.969 8.882 8.875 8.882h26.625v-222.058c0-4.91 3.969-8.882 8.875-8.882h142c4.906 0 8.875 3.973 8.875 8.882v222.059h79.875c4.906 0 8.875-3.973 8.875-8.882v-284.236c0-4.909-3.969-8.882-8.875-8.882zm-213 53.294c-4.901 0-8.875-3.977-8.875-8.883s3.974-8.882 8.875-8.882 8.875 3.976 8.875 8.882-3.974 8.883-8.875 8.883zm35.5 0c-4.901 0-8.875-3.977-8.875-8.883s3.974-8.882 8.875-8.882 8.875 3.976 8.875 8.882-3.974 8.883-8.875 8.883zm35.5 0c-4.901 0-8.875-3.977-8.875-8.883s3.974-8.882 8.875-8.882 8.875 3.976 8.875 8.882-3.974 8.883-8.875 8.883zm35.5 0c-4.901 0-8.875-3.977-8.875-8.883s3.974-8.882 8.875-8.882 8.875 3.976 8.875 8.882-3.974 8.883-8.875 8.883zm78.939 137.208-8.875 17.765c-1.508 3.01-4.576 4.91-7.939 4.91s-6.431-1.899-7.939-4.91l-8.875-17.765c-2.193-4.389-.416-9.724 3.969-11.918 4.368-2.169 9.716-.417 11.908 3.973l.936 1.874.936-1.874c2.193-4.389 7.532-6.142 11.908-3.973 4.387 2.194 6.164 7.529 3.971 11.918zm-3.97-31.556c-4.423 2.198-9.723.39-11.908-3.973l-.936-1.874-.936 1.874c-2.193 4.389-7.54 6.159-11.908 3.973-4.385-2.195-6.162-7.529-3.969-11.918l8.875-17.765c3.016-6.02 12.862-6.02 15.878 0l8.875 17.765c2.192 4.388.415 9.723-3.971 11.918z" fill="url(#SVGID_2_)"/></g></g></g></svg>