<svg id="Capa_1" enable-background="new 0 0 512 512" height="512" viewBox="0 0 512 512" width="512" xmlns="http://www.w3.org/2000/svg" xmlns:xlink="http://www.w3.org/1999/xlink"><linearGradient id="SVGID_1_" gradientUnits="userSpaceOnUse" x1="256" x2="256" y1="512" y2="0"><stop offset="0" stop-color="#addcff"/><stop offset=".5028" stop-color="#eaf6ff"/><stop offset="1" stop-color="#eaf6ff"/></linearGradient><linearGradient id="SVGID_2_" gradientUnits="userSpaceOnUse" x1="256" x2="256" y1="407" y2="105"><stop offset="0" stop-color="#00c0ff"/><stop offset="1" stop-color="#5558ff"/></linearGradient><g><g><circle cx="256" cy="256" fill="url(#SVGID_1_)" r="256"/></g><g><g><path d="m256 353.706c34.289 0 62.192-27.896 62.192-62.177s-27.903-62.176-62.192-62.176-62.192 27.896-62.192 62.176 27.903 62.177 62.192 62.177zm0-106.588c4.911 0 8.885 3.973 8.885 8.882s-3.974 8.882-8.885 8.882c-14.698 0-26.654 11.953-26.654 26.647 0 4.91-3.974 8.882-8.885 8.882s-8.885-3.973-8.885-8.882c.001-24.487 19.931-44.411 44.424-44.411zm-115.5 133.235c0 14.694 11.956 26.647 26.654 26.647h177.692c14.698 0 26.654-11.953 26.654-26.647v-186.53h-231zm115.5-168.765c44.093 0 79.962 35.859 79.962 79.941s-35.869 79.942-79.962 79.942-79.962-35.859-79.962-79.941 35.869-79.942 79.962-79.942zm88.846-106.588h-177.692c-14.698 0-26.654 11.953-26.654 26.647v44.412h231v-44.412c0-14.694-11.956-26.647-26.654-26.647zm-35.538 53.294h-106.616c-4.911 0-8.885-3.973-8.885-8.883 0-4.909 3.974-8.882 8.885-8.882h106.615c4.911 0 8.885 3.973 8.885 8.882 0 4.91-3.973 8.883-8.884 8.883z" fill="url(#SVGID_2_)"/></g></g></g></svg>