<svg id="Capa_1" enable-background="new 0 0 512 512" height="512" viewBox="0 0 512 512" width="512" xmlns="http://www.w3.org/2000/svg" xmlns:xlink="http://www.w3.org/1999/xlink"><linearGradient id="SVGID_1_" gradientUnits="userSpaceOnUse" x1="256" x2="256" y1="512" y2="0"><stop offset="0" stop-color="#ffe59a"/><stop offset="1" stop-color="#ffffd5"/></linearGradient><linearGradient id="SVGID_2_" gradientUnits="userSpaceOnUse" x1="256.013" x2="256.013" y1="407" y2="105"><stop offset="0" stop-color="#ffde00"/><stop offset="1" stop-color="#fd5900"/></linearGradient><g><g><circle cx="256" cy="256" fill="url(#SVGID_1_)" r="256"/></g><g><g><path d="m313.47 176.237c-12.656-19.162-33.512-32.462-57.498-35.14v-9.449c0-14.694-11.941-26.647-26.62-26.647h-88.732c-14.679 0-26.62 11.953-26.62 26.647v35.53c0 14.694 11.941 26.647 26.62 26.647h88.732c14.679 0 26.62-11.953 26.62-26.647v-7.896c15.022 2.202 28.474 9.509 37.978 20.508 3.726-1.242 7.631-2.132 11.712-2.842 2.484-.535 5.147-.711 7.808-.711zm-101.865-17.943h-53.239c-4.905 0-8.873-3.973-8.873-8.883 0-4.909 3.969-8.882 8.873-8.882h53.239c4.905 0 8.873 3.973 8.873 8.882.001 4.91-3.968 8.883-8.873 8.883zm106.479 88.824c4.896 0 8.873-3.981 8.873-8.882s-3.977-8.882-8.873-8.882-8.873 3.981-8.873 8.882 3.977 8.882 8.873 8.882zm56.434-47.61c-15.084-15.101-35.315-23.449-56.434-23.449-1.598 0-3.017 0-4.614.178 7.205 10.668 11.659 23.299 12.927 36.813 10.594 3.517 18.307 13.415 18.307 25.186 0 14.694-11.941 26.647-26.62 26.647s-26.62-11.953-26.62-26.647c0-11.327 7.126-20.961 17.103-24.81-1.453-12.726-6.523-24.481-14.618-33.636-28.572 8.883-50.4 34.109-54.837 64.308-1.952 12.613-.709 25.581 3.194 37.484l-72.405 72.657c-1.775 1.599-2.662 3.909-2.662 6.218v37.661c0 4.974 3.904 8.882 8.873 8.882h37.622c2.307 0 4.614-.888 6.211-2.665l19.305-19.277-16.173-16.189c-3.466-3.47-3.466-9.09 0-12.56s9.081-3.47 12.547 0l16.188 16.205 12.563-12.545-16.203-16.22c-3.466-3.47-3.466-9.091 0-12.561s9.081-3.47 12.547 0l16.218 16.235 15.591-15.568c11.89 3.909 24.845 4.975 37.445 3.199 64.316-9.342 91.191-88.854 44.545-135.546z" fill="url(#SVGID_2_)"/></g></g></g></svg>