<svg id="Capa_1" enable-background="new 0 0 512 512" height="512" viewBox="0 0 512 512" width="512" xmlns="http://www.w3.org/2000/svg" xmlns:xlink="http://www.w3.org/1999/xlink"><linearGradient id="SVGID_1_" gradientUnits="userSpaceOnUse" x1="256" x2="256" y1="512" y2="0"><stop offset="0" stop-color="#ffc2cc"/><stop offset="1" stop-color="#fff2f4"/></linearGradient><linearGradient id="SVGID_2_" gradientUnits="userSpaceOnUse" x1="256" x2="256" y1="353.5" y2="158.5"><stop offset="0" stop-color="#ffa68d"/><stop offset="1" stop-color="#fd3a84"/></linearGradient><g><g><circle cx="256" cy="256" fill="url(#SVGID_1_)" r="256"/></g><g><g><path d="m398.118 158.5h-284.236c-4.91 0-8.882 3.964-8.882 8.864v44.318h302v-44.318c0-4.9-3.973-8.864-8.882-8.864zm-44.412 124.091h-53.294v17.728h53.294zm-248.706 62.045c0 4.899 3.973 8.864 8.882 8.864h284.235c4.91 0 8.882-3.964 8.882-8.864v-115.227h-301.999zm177.647-70.909c0-4.899 3.973-8.863 8.882-8.863h71.059c4.909 0 8.882 3.964 8.882 8.863v35.455c0 4.899-3.973 8.864-8.882 8.864h-71.059c-4.909 0-8.882-3.964-8.882-8.864zm-62.176-8.863c4.905 0 8.882 3.968 8.882 8.863s-3.977 8.864-8.882 8.864-8.882-3.969-8.882-8.864c-.001-4.896 3.976-8.863 8.882-8.863zm-35.53 0c4.905 0 8.882 3.968 8.882 8.863s-3.977 8.864-8.882 8.864-8.882-3.969-8.882-8.864c0-4.896 3.977-8.863 8.882-8.863zm-35.529 0c4.905 0 8.883 3.968 8.883 8.863s-3.977 8.864-8.883 8.864c-4.905 0-8.882-3.969-8.882-8.864-.001-4.896 3.977-8.863 8.882-8.863zm0 35.454h71.059c4.909 0 8.882 3.964 8.882 8.863s-3.973 8.864-8.882 8.864h-71.059c-4.909 0-8.882-3.964-8.882-8.864-.001-4.898 3.972-8.863 8.882-8.863z" fill="url(#SVGID_2_)"/></g></g></g></svg>