<svg id="Capa_1" enable-background="new 0 0 512 512" height="512" viewBox="0 0 512 512" width="512" xmlns="http://www.w3.org/2000/svg" xmlns:xlink="http://www.w3.org/1999/xlink"><linearGradient id="SVGID_1_" gradientUnits="userSpaceOnUse" x1="256" x2="256" y1="512" y2="0"><stop offset="0" stop-color="#addcff"/><stop offset=".5028" stop-color="#eaf6ff"/><stop offset="1" stop-color="#eaf6ff"/></linearGradient><linearGradient id="SVGID_2_" gradientUnits="userSpaceOnUse" x1="256" x2="256" y1="407" y2="105"><stop offset="0" stop-color="#00c0ff"/><stop offset="1" stop-color="#5558ff"/></linearGradient><g><g><circle cx="256" cy="256" fill="url(#SVGID_1_)" r="256"/></g><path d="m309.333 105h-106.666c-14.705 0-26.667 11.953-26.667 26.647v248.706c0 14.694 11.962 26.647 26.667 26.647h106.667c14.704 0 26.666-11.953 26.666-26.647v-248.706c0-14.694-11.962-26.647-26.667-26.647zm-53.333 35.529c4.909 0 8.889 3.976 8.889 8.882 0 4.905-3.98 8.882-8.889 8.882s-8.889-3.977-8.889-8.882c0-4.906 3.98-8.882 8.889-8.882zm17.778 230.942h-35.556c-4.913 0-8.889-3.973-8.889-8.882s3.976-8.882 8.889-8.882h35.556c4.913 0 8.889 3.973 8.889 8.882s-3.976 8.882-8.889 8.882zm8.889-97.706c0 4.91-3.976 8.882-8.889 8.882s-8.889-3.973-8.889-8.882v-8.882h-17.778v8.882c0 4.91-3.976 8.882-8.889 8.882s-8.889-3.973-8.889-8.882v-35.529c0-4.91 3.976-8.882 8.889-8.882s8.889 3.973 8.889 8.882v8.882h17.778v-8.882c0-4.91 3.976-8.882 8.889-8.882s8.889 3.973 8.889 8.882z" fill="url(#SVGID_2_)"/></g></svg>