<svg id="Capa_1" enable-background="new 0 0 512 512" height="512" viewBox="0 0 512 512" width="512" xmlns="http://www.w3.org/2000/svg" xmlns:xlink="http://www.w3.org/1999/xlink"><linearGradient id="SVGID_1_" gradientUnits="userSpaceOnUse" x1="256" x2="256" y1="512" y2="0"><stop offset="0" stop-color="#c3ffe8"/><stop offset=".9973" stop-color="#f0fff4"/></linearGradient><linearGradient id="SVGID_2_" gradientUnits="userSpaceOnUse" x1="256" x2="256" y1="407" y2="105"><stop offset="0" stop-color="#9cffac"/><stop offset="1" stop-color="#00b59c"/></linearGradient><g><g><circle cx="256" cy="256" fill="url(#SVGID_1_)" r="256"/></g><g><g><path d="m247.118 407h17.765v-53.294h-17.765zm-68.142-41.24c.998-15.809-12.433-29.818-29.565-29.818-16.795 0-30.379 13.499-29.572 29.77-9.693 3.241-14.84 11.811-14.84 19.971 0 11.755 9.961 21.318 22.206 21.318h44.412c12.245 0 22.206-9.563 22.206-21.318.001-9.348-5.985-16.926-14.847-19.923zm213.177 0c.998-15.809-12.433-29.818-29.564-29.818-16.795 0-30.379 13.499-29.572 29.77-9.693 3.241-14.84 11.811-14.84 19.971 0 11.755 9.961 21.318 22.206 21.318h44.412c12.245 0 22.206-9.563 22.206-21.318-.001-9.348-5.986-16.926-14.848-19.923zm-38.447-46.723v-116.331c0-4.91-3.973-8.883-8.882-8.883h-26.647v-79.941c0-4.91-3.973-8.882-8.882-8.882h-106.589c-4.91 0-8.882 3.973-8.882 8.882v79.941h-26.647c-4.91 0-8.882 3.973-8.882 8.883v116.333c18.622 3.466 33.432 17.558 37.42 35.569 9.906 7.173 15.874 18.45 15.874 31.071 0 7.873-2.436 15.181-6.547 21.321h24.312v-62.177c0-4.909 3.973-8.882 8.882-8.882h35.529c4.91 0 8.882 3.973 8.882 8.882v62.177h24.312c-4.11-6.14-6.547-13.448-6.547-21.321 0-12.43 6.063-23.845 15.865-31.062 3.989-18.013 18.8-32.112 37.429-35.58zm-124.353-169.625c0-4.91 3.973-8.882 8.882-8.882s8.882 3.973 8.882 8.882v8.882h17.765v-8.882c0-4.91 3.973-8.882 8.882-8.882s8.882 3.973 8.882 8.882v35.53c0 4.909-3.973 8.882-8.882 8.882s-8.882-3.973-8.882-8.882v-8.883h-17.765v8.883c0 4.909-3.973 8.882-8.882 8.882s-8.882-3.973-8.882-8.882zm79.941 168.764h-106.588c-4.91 0-8.882-3.973-8.882-8.882s3.973-8.882 8.882-8.882h106.588c4.91 0 8.882 3.973 8.882 8.882 0 4.91-3.972 8.882-8.882 8.882zm0-35.529h-106.588c-4.91 0-8.882-3.973-8.882-8.882s3.973-8.882 8.882-8.882h106.588c4.91 0 8.882 3.973 8.882 8.882s-3.972 8.882-8.882 8.882zm0-35.529h-106.588c-4.91 0-8.882-3.973-8.882-8.882s3.973-8.882 8.882-8.882h106.588c4.91 0 8.882 3.973 8.882 8.882s-3.972 8.882-8.882 8.882z" fill="url(#SVGID_2_)"/></g></g></g></svg>