<svg id="Capa_1" enable-background="new 0 0 512 512" height="512" viewBox="0 0 512 512" width="512" xmlns="http://www.w3.org/2000/svg" xmlns:xlink="http://www.w3.org/1999/xlink"><linearGradient id="SVGID_1_" gradientUnits="userSpaceOnUse" x1="256" x2="256" y1="512" y2="0"><stop offset="0" stop-color="#ffbef9"/><stop offset="1" stop-color="#fff1ff"/></linearGradient><linearGradient id="SVGID_2_" gradientUnits="userSpaceOnUse" x1="256" x2="256" y1="380.5" y2="131.5"><stop offset="0" stop-color="#ff81ff"/><stop offset="1" stop-color="#a93aff"/></linearGradient><g><g><circle cx="256" cy="256" fill="url(#SVGID_1_)" r="256"/></g><g><g><path d="m202.706 273.912c4.901 0 8.882-3.981 8.882-8.882s-3.981-8.882-8.882-8.882-8.882 3.981-8.882 8.882 3.981 8.882 8.882 8.882zm-44.412 35.529h195.412v-124.353h-195.412zm168.765-106.588c4.905 0 8.882 3.976 8.882 8.882 0 4.905-3.977 8.882-8.882 8.882s-8.882-3.977-8.882-8.882c-.001-4.906 3.977-8.882 8.882-8.882zm0 35.529c4.905 0 8.882 3.976 8.882 8.882 0 4.905-3.977 8.882-8.882 8.882s-8.882-3.977-8.882-8.882c-.001-4.906 3.977-8.882 8.882-8.882zm0 35.53c4.905 0 8.882 3.976 8.882 8.882 0 4.905-3.977 8.882-8.882 8.882s-8.882-3.977-8.882-8.882c-.001-4.906 3.977-8.882 8.882-8.882zm-35.53-71.059c4.905 0 8.882 3.976 8.882 8.882 0 4.905-3.977 8.882-8.882 8.882s-8.882-3.977-8.882-8.882c0-4.906 3.977-8.882 8.882-8.882zm0 35.529c4.905 0 8.882 3.976 8.882 8.882 0 4.905-3.977 8.882-8.882 8.882s-8.882-3.977-8.882-8.882c0-4.906 3.977-8.882 8.882-8.882zm0 35.53c4.905 0 8.882 3.976 8.882 8.882 0 4.905-3.977 8.882-8.882 8.882s-8.882-3.977-8.882-8.882c0-4.906 3.977-8.882 8.882-8.882zm-35.529-71.059c4.905 0 8.882 3.976 8.882 8.882 0 4.905-3.977 8.882-8.882 8.882s-8.882-3.977-8.882-8.882c0-4.906 3.977-8.882 8.882-8.882zm0 35.529c4.905 0 8.882 3.976 8.882 8.882 0 4.905-3.977 8.882-8.882 8.882s-8.882-3.977-8.882-8.882c0-4.906 3.977-8.882 8.882-8.882zm0 35.53c4.905 0 8.882 3.976 8.882 8.882 0 4.905-3.977 8.882-8.882 8.882s-8.882-3.977-8.882-8.882c0-4.906 3.977-8.882 8.882-8.882zm-62.176-33.893v-28.283c0-4.91 3.973-8.882 8.882-8.882 4.91 0 8.882 3.973 8.882 8.882v28.283c10.317 3.679 17.765 13.446 17.765 25.011 0 14.694-11.953 26.647-26.647 26.647s-26.647-11.953-26.647-26.647c0-11.566 7.448-21.333 17.765-25.011zm204.294-108.519h-284.236c-4.91 0-8.882 3.978-8.882 8.893v213.429c0 4.916 3.973 8.893 8.882 8.893h26.647v8.893c0 4.916 3.973 8.893 8.882 8.893 4.91 0 8.882-3.978 8.882-8.893v-8.893h195.412v8.893c0 4.916 3.973 8.893 8.882 8.893s8.882-3.978 8.882-8.893v-8.893h26.647c4.91 0 8.882-3.978 8.882-8.893v-213.429c.002-4.915-3.971-8.893-8.88-8.893zm-26.647 186.75c0 4.916-3.973 8.893-8.882 8.893h-213.177c-4.91 0-8.882-3.977-8.882-8.893v-142.286c0-4.916 3.973-8.893 8.882-8.893h213.177c4.91 0 8.882 3.978 8.882 8.893z" fill="url(#SVGID_2_)"/></g></g></g></svg>