<svg id="Capa_1" enable-background="new 0 0 512 512" height="512" viewBox="0 0 512 512" width="512" xmlns="http://www.w3.org/2000/svg" xmlns:xlink="http://www.w3.org/1999/xlink"><linearGradient id="SVGID_1_" gradientUnits="userSpaceOnUse" x1="256" x2="256" y1="512" y2="0"><stop offset="0" stop-color="#addcff"/><stop offset=".5028" stop-color="#eaf6ff"/><stop offset="1" stop-color="#eaf6ff"/></linearGradient><linearGradient id="SVGID_2_" gradientUnits="userSpaceOnUse" x1="256" x2="256" y1="407" y2="105"><stop offset="0" stop-color="#00c0ff"/><stop offset="1" stop-color="#5558ff"/></linearGradient><g><g><circle cx="256" cy="256" fill="url(#SVGID_1_)" r="256"/></g><g><g><path d="m247.118 247.118h-88.823v88.824h88.823zm-17.765 62.176c0 4.91-3.973 8.882-8.882 8.882s-8.882-3.973-8.882-8.882v-8.882h-17.765v8.882c0 4.91-3.973 8.882-8.882 8.882-4.91 0-8.882-3.973-8.882-8.882v-35.529c0-4.91 3.973-8.882 8.882-8.882 4.91 0 8.882 3.973 8.882 8.882v8.882h17.765v-8.882c0-4.91 3.973-8.882 8.882-8.882s8.882 3.973 8.882 8.882zm168.765-204.294h-284.236c-4.91 0-8.882 3.973-8.882 8.882v62.176h302v-62.176c0-4.909-3.973-8.882-8.882-8.882zm-248.706 53.294c-4.905 0-8.882-3.977-8.882-8.882 0-4.906 3.977-8.882 8.882-8.882s8.882 3.976 8.882 8.882c0 4.905-3.977 8.882-8.882 8.882zm35.529 0c-4.905 0-8.882-3.977-8.882-8.882 0-4.906 3.977-8.882 8.882-8.882s8.882 3.976 8.882 8.882c0 4.905-3.977 8.882-8.882 8.882zm35.53 0c-4.905 0-8.882-3.977-8.882-8.882 0-4.906 3.977-8.882 8.882-8.882s8.882 3.976 8.882 8.882c0 4.905-3.977 8.882-8.882 8.882zm142.117 0h-88.824c-4.91 0-8.882-3.973-8.882-8.882s3.973-8.882 8.882-8.882h88.824c4.91 0 8.882 3.973 8.882 8.882s-3.972 8.882-8.882 8.882zm-257.588 239.824c0 4.91 3.973 8.882 8.882 8.882h284.235c4.91 0 8.882-3.973 8.882-8.882v-204.295h-301.999zm186.529-168.765h71.059c4.91 0 8.882 3.973 8.882 8.882s-3.973 8.882-8.882 8.882h-71.059c-4.91 0-8.882-3.973-8.882-8.882s3.973-8.882 8.882-8.882zm0 35.529h71.059c4.91 0 8.882 3.973 8.882 8.882s-3.973 8.882-8.882 8.882h-71.059c-4.91 0-8.882-3.973-8.882-8.882s3.973-8.882 8.882-8.882zm0 35.53h71.059c4.91 0 8.882 3.973 8.882 8.882 0 4.91-3.973 8.882-8.882 8.882h-71.059c-4.91 0-8.882-3.973-8.882-8.882s3.973-8.882 8.882-8.882zm0 35.529h71.059c4.91 0 8.882 3.973 8.882 8.882 0 4.91-3.973 8.883-8.882 8.883h-71.059c-4.91 0-8.882-3.973-8.882-8.883 0-4.909 3.973-8.882 8.882-8.882zm-151-97.706c0-4.91 3.973-8.882 8.882-8.882h106.589c4.91 0 8.882 3.973 8.882 8.882v106.588c0 4.91-3.973 8.883-8.882 8.883h-106.588c-4.91 0-8.882-3.973-8.882-8.883v-106.588z" fill="url(#SVGID_2_)"/></g></g></g></svg>