<svg id="Capa_1" enable-background="new 0 0 512 512" height="512" viewBox="0 0 512 512" width="512" xmlns="http://www.w3.org/2000/svg" xmlns:xlink="http://www.w3.org/1999/xlink"><linearGradient id="SVGID_1_" gradientUnits="userSpaceOnUse" x1="256" x2="256" y1="512" y2="0"><stop offset="0" stop-color="#ffe59a"/><stop offset="1" stop-color="#ffffd5"/></linearGradient><linearGradient id="SVGID_2_" gradientUnits="userSpaceOnUse" x1="256" x2="256" y1="407" y2="105"><stop offset="0" stop-color="#ffde00"/><stop offset="1" stop-color="#fd5900"/></linearGradient><g><g><circle cx="256" cy="256" fill="url(#SVGID_1_)" r="256"/></g><g><g><path d="m293.017 193.825h-74.033c-2.678 7.563-8.676 13.566-16.233 16.247v127.388c7.558 2.68 13.555 8.683 16.233 16.247h74.033c2.678-7.564 8.676-13.566 16.233-16.247v-127.389c-7.558-2.68-13.555-8.683-16.233-16.246zm-10.392 124.352h-53.25c-4.906 0-8.875-3.973-8.875-8.882s3.969-8.882 8.875-8.882h53.25c4.906 0 8.875 3.973 8.875 8.882s-3.969 8.882-8.875 8.882zm0-35.53h-53.25c-4.906 0-8.875-3.973-8.875-8.882s3.969-8.882 8.875-8.882h53.25c4.906 0 8.875 3.973 8.875 8.882 0 4.91-3.969 8.882-8.875 8.882zm0-35.529h-53.25c-4.906 0-8.875-3.973-8.875-8.882 0-4.91 3.969-8.883 8.875-8.883h53.25c4.906 0 8.875 3.973 8.875 8.883s-3.969 8.882-8.875 8.882zm71-106.587h-195.25c-4.906 0-8.875 3.973-8.875 8.882v248.705c0 4.91 3.969 8.882 8.875 8.882h195.25c4.906 0 8.875-3.973 8.875-8.882v-248.705c0-4.91-3.969-8.882-8.875-8.882zm-26.625 204.293c0 4.91-3.969 8.882-8.875 8.882-4.897 0-8.875 3.981-8.875 8.882 0 4.91-3.969 8.882-8.875 8.882h-88.75c-4.906 0-8.875-3.973-8.875-8.882 0-4.901-3.978-8.882-8.875-8.882-4.906 0-8.875-3.973-8.875-8.882v-142.117c0-4.91 3.969-8.882 8.875-8.882 4.897 0 8.875-3.981 8.875-8.882 0-4.91 3.969-8.882 8.875-8.882h88.75c4.906 0 8.875 3.973 8.875 8.882 0 4.901 3.978 8.882 8.875 8.882 4.906 0 8.875 3.973 8.875 8.882zm0-230.94c0-2.698-1.222-5.239-3.319-6.931-2.106-1.683-4.862-2.325-7.48-1.744l-78.939 17.557h89.738z" fill="url(#SVGID_2_)"/></g></g></g></svg>