<svg id="Capa_1" enable-background="new 0 0 512 512" height="512" viewBox="0 0 512 512" width="512" xmlns="http://www.w3.org/2000/svg" xmlns:xlink="http://www.w3.org/1999/xlink"><linearGradient id="SVGID_1_" gradientUnits="userSpaceOnUse" x1="256" x2="256" y1="512" y2="0"><stop offset="0" stop-color="#ffc2cc"/><stop offset="1" stop-color="#fff2f4"/></linearGradient><linearGradient id="SVGID_2_" gradientUnits="userSpaceOnUse" x1="256" x2="256" y1="407" y2="105"><stop offset="0" stop-color="#ffa68d"/><stop offset="1" stop-color="#fd3a84"/></linearGradient><g><g><circle cx="256" cy="256" fill="url(#SVGID_1_)" r="256"/></g><g><g><path d="m158.1 300.412h195.8v-17.765h-195.8zm0 97.706c0 4.91 3.981 8.882 8.9 8.882s8.9-3.973 8.9-8.882v-26.647h17.8v26.647c0 4.91 3.981 8.882 8.9 8.882s8.9-3.973 8.9-8.882v-26.647h17.8v26.647c0 4.91 3.981 8.882 8.9 8.882s8.9-3.973 8.9-8.882v-26.647h17.8v26.647c0 4.91 3.981 8.882 8.9 8.882s8.9-3.973 8.9-8.882v-26.647h17.8v26.647c0 4.91 3.981 8.882 8.9 8.882s8.9-3.973 8.9-8.882v-26.647h17.8v26.647c0 4.91 3.981 8.882 8.9 8.882s8.9-3.973 8.9-8.882v-79.941h-195.8zm186.9-257.589h-178c-4.919 0-8.9 3.973-8.9 8.882v115.471h195.8v-115.47c0-4.91-3.981-8.883-8.9-8.883zm35.6-35.529h-249.2c-4.919 0-8.9 3.973-8.9 8.882v53.294c0 4.91 3.981 8.882 8.9 8.882h8.9v-26.647c0-14.694 11.977-26.647 26.7-26.647h178c14.723 0 26.7 11.953 26.7 26.647v26.647h8.9c4.919 0 8.9-3.973 8.9-8.882v-53.294c0-4.909-3.981-8.882-8.9-8.882z" fill="url(#SVGID_2_)"/></g></g></g></svg>