<svg id="Capa_1" enable-background="new 0 0 512 512" height="512" viewBox="0 0 512 512" width="512" xmlns="http://www.w3.org/2000/svg" xmlns:xlink="http://www.w3.org/1999/xlink"><linearGradient id="SVGID_1_" gradientUnits="userSpaceOnUse" x1="256" x2="256" y1="512" y2="0"><stop offset="0" stop-color="#addcff"/><stop offset=".5028" stop-color="#eaf6ff"/><stop offset="1" stop-color="#eaf6ff"/></linearGradient><linearGradient id="SVGID_2_" gradientUnits="userSpaceOnUse" x1="256" x2="256" y1="407" y2="105"><stop offset="0" stop-color="#00c0ff"/><stop offset="1" stop-color="#5558ff"/></linearGradient><g><g><circle cx="256" cy="256" fill="url(#SVGID_1_)" r="256"/></g><g><g><path d="m327.273 193.823h-8.909v-71.059h8.909c4.924 0 8.909-3.973 8.909-8.882s-3.985-8.882-8.909-8.882h-106.909c-4.924 0-8.909 3.973-8.909 8.882s3.985 8.882 8.909 8.882h8.909v71.059h-8.909c-14.738 0-26.727 11.953-26.727 26.647v142.118c0 14.694 11.989 26.647 26.727 26.647h8.909v8.882c0 4.91 3.985 8.882 8.909 8.882s8.909-3.973 8.909-8.882v-8.882h53.455v8.882c0 4.91 3.985 8.882 8.909 8.882s8.909-3.973 8.909-8.882v-8.882h8.909c14.738 0 26.727-11.953 26.727-26.647v-142.117c0-14.695-11.989-26.648-26.727-26.648zm-80.182-71.058h53.455v35.529h-53.455zm0 222.058c0 4.91-3.985 8.883-8.909 8.883s-8.909-3.973-8.909-8.883v-106.588c0-4.91 3.985-8.882 8.909-8.882s8.909 3.973 8.909 8.882zm35.636 0c0 4.91-3.985 8.883-8.909 8.883s-8.909-3.973-8.909-8.883v-106.588c0-4.91 3.985-8.882 8.909-8.882s8.909 3.973 8.909 8.882zm-35.636-151v-17.765h53.455v17.765zm71.273 151c0 4.91-3.985 8.883-8.909 8.883s-8.909-3.973-8.909-8.883v-106.588c0-4.91 3.985-8.882 8.909-8.882s8.909 3.973 8.909 8.882zm-160.364-79.941v53.294c0 4.91 3.985 8.882 8.909 8.882h8.909v-71.058h-8.909c-4.924 0-8.909 3.973-8.909 8.882z" fill="url(#SVGID_2_)"/></g></g></g></svg>