<svg id="Capa_1" enable-background="new 0 0 512 512" height="512" viewBox="0 0 512 512" width="512" xmlns="http://www.w3.org/2000/svg" xmlns:xlink="http://www.w3.org/1999/xlink"><linearGradient id="SVGID_1_" gradientUnits="userSpaceOnUse" x1="256" x2="256" y1="512" y2="0"><stop offset="0" stop-color="#ffe59a"/><stop offset="1" stop-color="#ffffd5"/></linearGradient><linearGradient id="SVGID_2_" gradientUnits="userSpaceOnUse" x1="256" x2="256" y1="389.5" y2="122.5"><stop offset="0" stop-color="#ffde00"/><stop offset="1" stop-color="#fd5900"/></linearGradient><g><g><circle cx="256" cy="256" fill="url(#SVGID_1_)" r="256"/></g><g><g><path d="m371.471 229.3h-8.882c-23.7 0-44.412 19.14-44.412 44.5v26.7h-124.354v-26.7c0-25.35-20.683-44.5-44.412-44.5h-8.882c-19.595 0-35.529 15.966-35.529 35.6s15.934 35.6 35.529 35.6v44.5c0 14.723 11.953 26.7 26.647 26.7h8.882v8.9c0 4.919 3.973 8.9 8.882 8.9 4.91 0 8.882-3.98 8.882-8.9v-8.9h124.353v8.9c0 4.919 3.973 8.9 8.882 8.9 4.91 0 8.882-3.98 8.882-8.9v-8.9h8.882c14.694 0 26.647-11.977 26.647-26.7v-44.5c19.595 0 35.529-15.966 35.529-35.6s-15.931-35.6-35.526-35.6zm-159.883 44.5v8.9h88.823v-8.9c0-32.112 23.688-57.321 53.294-61.615v-27.385c0-34.348-27.896-62.3-62.176-62.3h-71.059c-34.28 0-62.176 27.952-62.176 62.3v27.384c29.571 4.286 53.294 29.451 53.294 61.616zm79.941-115.7c4.905 0 8.882 3.984 8.882 8.9 0 4.915-3.977 8.9-8.882 8.9s-8.882-3.985-8.882-8.9c0-4.916 3.977-8.9 8.882-8.9zm0 71.2c4.905 0 8.882 3.984 8.882 8.9 0 4.915-3.977 8.9-8.882 8.9s-8.882-3.985-8.882-8.9c0-4.916 3.977-8.9 8.882-8.9zm-35.529-35.6c4.905 0 8.882 3.984 8.882 8.9 0 4.915-3.977 8.9-8.882 8.9s-8.882-3.985-8.882-8.9c0-4.916 3.977-8.9 8.882-8.9zm-35.529-35.6c4.905 0 8.882 3.984 8.882 8.9 0 4.915-3.977 8.9-8.882 8.9s-8.882-3.985-8.882-8.9c-.001-4.916 3.976-8.9 8.882-8.9zm0 71.2c4.905 0 8.882 3.984 8.882 8.9 0 4.915-3.977 8.9-8.882 8.9s-8.882-3.985-8.882-8.9c-.001-4.916 3.976-8.9 8.882-8.9z" fill="url(#SVGID_2_)"/></g></g></g></svg>