<svg id="Capa_1" enable-background="new 0 0 512 512" height="512" viewBox="0 0 512 512" width="512" xmlns="http://www.w3.org/2000/svg" xmlns:xlink="http://www.w3.org/1999/xlink"><linearGradient id="SVGID_1_" gradientUnits="userSpaceOnUse" x1="256" x2="256" y1="512" y2="0"><stop offset="0" stop-color="#ffbef9"/><stop offset="1" stop-color="#fff1ff"/></linearGradient><linearGradient id="SVGID_2_" gradientUnits="userSpaceOnUse" x1="256" x2="256" y1="407" y2="105"><stop offset="0" stop-color="#ff81ff"/><stop offset="1" stop-color="#a93aff"/></linearGradient><g><g><circle cx="256" cy="256" fill="url(#SVGID_1_)" r="256"/></g><g><g><path d="m344.636 282.647h-44.318v-8.882c0-4.91-3.964-8.882-8.864-8.882-4.899 0-8.864 3.973-8.864 8.882v8.882h-17.727v-26.647c0-4.91-3.965-8.882-8.864-8.882s-8.864 3.973-8.864 8.882v26.647h-17.727v-8.882c0-4.91-3.964-8.882-8.864-8.882-4.899 0-8.864 3.973-8.864 8.882v8.882h-44.318c-4.899 0-8.864 3.973-8.864 8.882s3.964 8.882 8.864 8.882h8.864v8.882c0 24.487 19.883 44.412 44.318 44.412h70.909c24.436 0 44.318-19.925 44.318-44.412v-8.882h8.864c4.899 0 8.864-3.973 8.864-8.882s-3.963-8.882-8.863-8.882zm-17.727-177.647h-141.818c-14.663 0-26.591 11.953-26.591 26.647v71.059c0 14.694 11.928 26.647 26.591 26.647h141.818c14.663 0 26.591-11.953 26.591-26.647v-71.059c0-14.694-11.928-26.647-26.591-26.647zm-108.96 86.221c-3.462 3.47-9.071 3.47-12.534 0s-3.462-9.09 0-12.56l35.455-35.529c3.462-3.47 9.071-3.47 12.534 0s3.462 9.09 0 12.56zm88.636-35.529-35.455 35.529c-3.462 3.47-9.071 3.47-12.534 0s-3.462-9.09 0-12.56l35.455-35.529c3.462-3.47 9.071-3.47 12.534 0s3.462 9.09 0 12.56zm-77.176 224.661c0 14.694 11.928 26.647 26.591 26.647s26.591-11.953 26.591-26.647v-8.882h-53.182z" fill="url(#SVGID_2_)"/></g></g></g></svg>