<svg id="Capa_1" enable-background="new 0 0 512 512" height="512" viewBox="0 0 512 512" width="512" xmlns="http://www.w3.org/2000/svg" xmlns:xlink="http://www.w3.org/1999/xlink"><linearGradient id="SVGID_1_" gradientUnits="userSpaceOnUse" x1="256" x2="256" y1="512" y2="0"><stop offset="0" stop-color="#ffc2cc"/><stop offset="1" stop-color="#fff2f4"/></linearGradient><linearGradient id="SVGID_2_" gradientUnits="userSpaceOnUse" x1="256" x2="256" y1="406.991" y2="105"><stop offset="0" stop-color="#ffa68d"/><stop offset="1" stop-color="#fd3a84"/></linearGradient><g><g><circle cx="256" cy="256" fill="url(#SVGID_1_)" r="256"/></g><g><g><path d="m245.527 176.29-44.552-71.29h-20.959l55.037 88.051zm65.498-71.29-81.671 130.69v171.301h17.764v-163.668c0-1.666.469-3.296 1.353-4.71l83.509-133.613zm-201.597 36.726c-3.817 2.211-5.43 6.896-3.791 10.99l29.665 74.075c.928 2.307 2.776 4.12 5.1 5.005 2.307.867 4.892.72 7.13-.373l28.528-14.321v181.007c0 4.91 3.973 8.882 8.882 8.882h26.646v-173.851c0-1.665.468-3.296 1.353-4.71l11.637-18.622-61.863-98.973zm293.144 0-53.292-30.893-84.398 135.04v161.118h62.175c4.91 0 8.882-3.973 8.882-8.882v-181.007l28.528 14.321c2.229 1.11 4.823 1.258 7.13.373 2.324-.885 4.172-2.698 5.1-5.005l29.665-74.075c1.64-4.095.026-8.779-3.79-10.99zm-112.492-36.726h-68.16l34.08 54.533z" fill="url(#SVGID_2_)"/></g></g></g></svg>