<svg id="Capa_1" enable-background="new 0 0 512 512" height="512" viewBox="0 0 512 512" width="512" xmlns="http://www.w3.org/2000/svg" xmlns:xlink="http://www.w3.org/1999/xlink"><linearGradient id="SVGID_1_" gradientUnits="userSpaceOnUse" x1="256" x2="256" y1="512" y2="0"><stop offset="0" stop-color="#ffe59a"/><stop offset="1" stop-color="#ffffd5"/></linearGradient><linearGradient id="SVGID_2_" gradientUnits="userSpaceOnUse" x1="256" x2="256" y1="407" y2="105"><stop offset="0" stop-color="#ffde00"/><stop offset="1" stop-color="#fd5900"/></linearGradient><g><g><circle cx="256" cy="256" fill="url(#SVGID_1_)" r="256"/></g><g><g><path d="m398.118 318.176h-284.236c-4.91 0-8.882 3.973-8.882 8.882 0 4.91 3.973 8.883 8.882 8.883h9.78c3.933 27.125 25.271 48.463 52.396 52.396v9.78c0 4.91 3.973 8.882 8.882 8.882 4.91 0 8.882-3.973 8.882-8.882v-8.882h124.353v8.882c0 4.91 3.973 8.882 8.882 8.882 4.91 0 8.882-3.973 8.882-8.882v-9.78c27.125-3.933 48.464-25.271 52.396-52.396h9.78c4.91 0 8.882-3.973 8.882-8.883.003-4.909-3.97-8.882-8.879-8.882zm-159.883-159.882c14.694 0 26.647-11.953 26.647-26.647s-11.953-26.647-26.647-26.647-26.647 11.953-26.647 26.647 11.953 26.647 26.647 26.647zm-8.882 33.894v108.224h17.765v-17.765h17.765v17.765h17.765v-62.176c0-4.901 3.981-8.882 8.882-8.882s8.882 3.981 8.882 8.882c0 4.91 3.973 8.882 8.882 8.882 4.91 0 8.882-3.973 8.882-8.882 0-14.694-11.953-26.647-26.647-26.647s-26.647 11.953-26.647 26.647v26.647h-17.765v-72.695c10.317-3.679 17.765-13.446 17.765-25.011v-.227c-7.446 5.636-16.611 9.109-26.647 9.109s-19.201-3.473-26.647-9.109v.227c0 11.564 7.448 21.331 17.765 25.011z" fill="url(#SVGID_2_)"/></g></g></g></svg>