<svg id="Capa_1" enable-background="new 0 0 512 512" height="512" viewBox="0 0 512 512" width="512" xmlns="http://www.w3.org/2000/svg" xmlns:xlink="http://www.w3.org/1999/xlink"><linearGradient id="SVGID_1_" gradientUnits="userSpaceOnUse" x1="256" x2="256" y1="512" y2="0"><stop offset="0" stop-color="#addcff"/><stop offset=".5028" stop-color="#eaf6ff"/><stop offset="1" stop-color="#eaf6ff"/></linearGradient><linearGradient id="SVGID_2_" gradientUnits="userSpaceOnUse" x1="256" x2="256" y1="389.5" y2="122.5"><stop offset="0" stop-color="#00c0ff"/><stop offset="1" stop-color="#5558ff"/></linearGradient><g><g><circle cx="256" cy="256" fill="url(#SVGID_1_)" r="256"/></g><g><g><path d="m335.941 247.1h-159.882v35.6h159.882zm-53.294-53.4h53.294v-17.8h-53.294zm115.471-71.2h-284.236c-4.91 0-8.882 3.98-8.882 8.9v142.4c0 4.919 3.973 8.9 8.882 8.9h44.412v-44.5c0-4.919 3.973-8.9 8.882-8.9h177.647c4.91 0 8.882 3.981 8.882 8.9v44.5h44.412c4.91 0 8.882-3.981 8.882-8.9v-142.4c.001-4.92-3.972-8.9-8.881-8.9zm-230.942 53.4c-4.905 0-8.882-3.985-8.882-8.9 0-4.916 3.977-8.9 8.882-8.9s8.882 3.984 8.882 8.9c.001 4.915-3.976 8.9-8.882 8.9zm35.53 0c-4.905 0-8.882-3.985-8.882-8.9 0-4.916 3.977-8.9 8.882-8.9s8.882 3.984 8.882 8.9c0 4.915-3.977 8.9-8.882 8.9zm151 26.7c0 4.919-3.973 8.9-8.882 8.9h-71.059c-4.91 0-8.882-3.98-8.882-8.9v-35.6c0-4.919 3.973-8.9 8.882-8.9h71.059c4.91 0 8.882 3.98 8.882 8.9zm-8.882 169.1c-34.28 0-62.177-27.952-62.177-62.3 0-4.919-3.973-8.9-8.882-8.9s-8.882 3.98-8.882 8.9c0 44.17 35.859 80.1 79.941 80.1 4.91 0 8.882-3.98 8.882-8.9s-3.973-8.9-8.882-8.9zm0-35.6c-14.694 0-26.647-11.977-26.647-26.7 0-4.919-3.973-8.9-8.882-8.9-4.91 0-8.882 3.98-8.882 8.9 0 24.536 19.925 44.5 44.412 44.5 4.91 0 8.882-3.98 8.882-8.9s-3.974-8.9-8.883-8.9zm-106.589-35.6c-4.91 0-8.882 3.98-8.882 8.9 0 34.349-27.896 62.3-62.177 62.3-4.91 0-8.882 3.98-8.882 8.9s3.973 8.9 8.882 8.9c44.082 0 79.941-35.93 79.941-80.1.001-4.92-3.972-8.9-8.882-8.9zm-79.941 44.5c0 4.919 3.973 8.9 8.882 8.9 24.487 0 44.412-19.964 44.412-44.5 0-4.919-3.973-8.9-8.882-8.9-4.91 0-8.882 3.98-8.882 8.9 0 14.723-11.953 26.7-26.647 26.7-4.91 0-8.883 3.981-8.883 8.9z" fill="url(#SVGID_2_)"/></g></g></g></svg>