<svg id="Capa_1" enable-background="new 0 0 512 512" height="512" viewBox="0 0 512 512" width="512" xmlns="http://www.w3.org/2000/svg" xmlns:xlink="http://www.w3.org/1999/xlink"><linearGradient id="SVGID_1_" gradientUnits="userSpaceOnUse" x1="256" x2="256" y1="512" y2="0"><stop offset="0" stop-color="#c3ffe8"/><stop offset=".9973" stop-color="#f0fff4"/></linearGradient><linearGradient id="SVGID_2_" gradientUnits="userSpaceOnUse" x1="256" x2="256" y1="407" y2="105"><stop offset="0" stop-color="#9cffac"/><stop offset="1" stop-color="#00b59c"/></linearGradient><g><g><circle cx="256" cy="256" fill="url(#SVGID_1_)" r="256"/></g><g><g><path d="m256 229.353c-22.367 0-44.318 30.793-44.318 62.176s21.951 62.177 44.318 62.177 44.318-30.793 44.318-62.177c0-31.383-21.951-62.176-44.318-62.176zm70.909-124.353h-141.818c-14.663 0-26.591 11.953-26.591 26.647v17.765c0 14.694 11.928 26.647 26.591 26.647h141.818c14.663 0 26.591-11.953 26.591-26.647v-17.765c0-14.694-11.928-26.647-26.591-26.647zm-53.182 44.412h-35.455c-4.899 0-8.864-3.973-8.864-8.882s3.964-8.882 8.864-8.882h35.455c4.899 0 8.864 3.973 8.864 8.882s-3.965 8.882-8.864 8.882zm-85.871 44.411c-18.553 23.124-29.356 54.797-29.356 88.824 0 68.569 43.738 124.353 97.5 124.353s97.5-55.784 97.5-124.353c0-34.026-10.804-65.7-29.356-88.824zm68.144 177.648c-35.515 0-62.045-42.208-62.045-79.941 0-37.732 26.53-79.941 62.045-79.941s62.045 42.208 62.045 79.941c0 37.732-26.53 79.941-62.045 79.941z" fill="url(#SVGID_2_)"/></g></g></g></svg>