<svg id="Capa_1" enable-background="new 0 0 512 512" height="512" viewBox="0 0 512 512" width="512" xmlns="http://www.w3.org/2000/svg" xmlns:xlink="http://www.w3.org/1999/xlink"><linearGradient id="SVGID_1_" gradientUnits="userSpaceOnUse" x1="256" x2="256" y1="512" y2="0"><stop offset="0" stop-color="#ffbef9"/><stop offset="1" stop-color="#fff1ff"/></linearGradient><linearGradient id="SVGID_2_" gradientUnits="userSpaceOnUse" x1="256" x2="256" y1="371.5" y2="140.5"><stop offset="0" stop-color="#ff81ff"/><stop offset="1" stop-color="#a93aff"/></linearGradient><g><g><circle cx="256" cy="256" fill="url(#SVGID_1_)" r="256"/></g><g><g><path d="m380.353 247.115h-248.706c-14.694 0-26.647 11.956-26.647 26.654v35.539c0 4.911 3.973 8.885 8.882 8.885h284.235c4.91 0 8.882-3.974 8.882-8.885v-35.539c.001-14.698-11.952-26.654-26.646-26.654zm-257.588 115.5c0 4.911 3.973 8.885 8.882 8.885 4.91 0 8.882-3.974 8.882-8.885v-8.884h230.941v8.884c0 4.911 3.973 8.885 8.882 8.885s8.882-3.974 8.882-8.885v-26.654h-266.469zm266.47-177.692c0-4.911-3.973-8.884-8.882-8.884-4.91 0-8.882 3.974-8.882 8.884v8.885h-40.352c-11.26-31.712-41.229-53.308-75.119-53.308s-63.859 21.596-75.118 53.308h-40.352v-8.885c0-4.911-3.973-8.884-8.882-8.884s-8.882 3.974-8.882 8.884v44.423h266.471c-.002-14.203-.002-30.449-.002-44.423z" fill="url(#SVGID_2_)"/></g></g></g></svg>