<svg id="Capa_1" enable-background="new 0 0 512 512" height="512" viewBox="0 0 512 512" width="512" xmlns="http://www.w3.org/2000/svg" xmlns:xlink="http://www.w3.org/1999/xlink"><linearGradient id="SVGID_1_" gradientUnits="userSpaceOnUse" x1="256" x2="256" y1="512" y2="0"><stop offset="0" stop-color="#addcff"/><stop offset=".5028" stop-color="#eaf6ff"/><stop offset="1" stop-color="#eaf6ff"/></linearGradient><linearGradient id="SVGID_2_" gradientUnits="userSpaceOnUse" x1="256" x2="256" y1="398" y2="114"><stop offset="0" stop-color="#00c0ff"/><stop offset="1" stop-color="#5558ff"/></linearGradient><g><g><circle cx="256" cy="256" fill="url(#SVGID_1_)" r="256"/></g><g><g><path d="m398.118 273.75c-16.34 0-63.642 0-79.941 0v-17.75h44.412c4.909 0 8.882-3.97 8.882-8.875v-124.25c0-4.905-3.973-8.875-8.882-8.875h-213.177c-4.909 0-8.882 3.97-8.882 8.875v124.25c0 4.905 3.973 8.875 8.882 8.875h44.412v17.75c-22.127 0-66.487 0-79.941 0-4.91 0-8.882 3.97-8.882 8.875s3.973 8.875 8.882 8.875h7.815v97.625c0 4.905 3.973 8.875 8.882 8.875h249.773c4.909 0 8.882-3.97 8.882-8.875v-97.625h8.882c4.91 0 8.882-3.97 8.882-8.875s-3.972-8.875-8.881-8.875zm-186.53-17.75h88.823v17.75h-88.823zm142.118 97.625c0 4.905-3.973 8.875-8.882 8.875h-177.647c-4.91 0-8.882-3.97-8.882-8.875v-35.5c0-4.905 3.973-8.875 8.882-8.875h177.647c4.91 0 8.882 3.97 8.882 8.875zm-177.647-8.875h159.882v-17.75h-159.882z" fill="url(#SVGID_2_)"/></g></g></g></svg>